<svg width="28" height="28" viewBox="0 0 28 28" fill="none" xmlns="http://www.w3.org/2000/svg">
<path d="M24.4999 2.33398H10.4999C10.1905 2.33398 9.89375 2.4569 9.67496 2.67569C9.45617 2.89449 9.33325 3.19123 9.33325 3.50065V8.16732H6.99992C6.6905 8.16732 6.39375 8.29023 6.17496 8.50903C5.95617 8.72782 5.83325 9.02456 5.83325 9.33398V14.0007H3.49992C3.1905 14.0007 2.89375 14.1236 2.67496 14.3424C2.45617 14.5612 2.33325 14.8579 2.33325 15.1673V24.5007C2.33325 24.8101 2.45617 25.1068 2.67496 25.3256C2.89375 25.5444 3.1905 25.6673 3.49992 25.6673H12.8333C13.1427 25.6673 13.4394 25.5444 13.6582 25.3256C13.877 25.1068 13.9999 24.8101 13.9999 24.5007V22.1673H18.6666C18.976 22.1673 19.2728 22.0444 19.4915 21.8256C19.7103 21.6068 19.8333 21.3101 19.8333 21.0007V18.6673H24.4999C24.8093 18.6673 25.1061 18.5444 25.3249 18.3256C25.5437 18.1068 25.6666 17.8101 25.6666 17.5007V3.50065C25.6666 3.19123 25.5437 2.89449 25.3249 2.67569C25.1061 2.4569 24.8093 2.33398 24.4999 2.33398V2.33398ZM11.6666 23.334H4.66659V16.334H11.6666V23.334ZM17.4999 19.834H13.9999V15.1673C13.9999 14.8579 13.877 14.5612 13.6582 14.3424C13.4394 14.1236 13.1427 14.0007 12.8333 14.0007H8.16659V10.5007H17.4999V19.834ZM23.3333 16.334H19.8333V9.33398C19.8333 9.02456 19.7103 8.72782 19.4915 8.50903C19.2728 8.29023 18.976 8.16732 18.6666 8.16732H11.6666V4.66732H23.3333V16.334Z" fill="#C4A141"/>
</svg>
