<svg width="28" height="28" viewBox="0 0 28 28" fill="none" xmlns="http://www.w3.org/2000/svg">
<path d="M22.9018 4.25902C22.7662 4.14938 22.6078 4.0715 22.4382 4.03113C22.2686 3.99075 22.0922 3.98889 21.9218 4.02569C20.6751 4.28695 19.3882 4.29028 18.1402 4.03547C16.8922 3.78065 15.7095 3.27309 14.6651 2.54402C14.4698 2.40854 14.2378 2.33594 14.0001 2.33594C13.7624 2.33594 13.5304 2.40854 13.3351 2.54402C12.2906 3.27309 11.108 3.78065 9.86002 4.03547C8.61202 4.29028 7.32508 4.28695 6.07842 4.02569C5.90802 3.98889 5.73153 3.99075 5.56194 4.03113C5.39235 4.0715 5.23396 4.14938 5.09842 4.25902C4.96306 4.36882 4.85403 4.50756 4.77933 4.66504C4.70463 4.82251 4.66616 4.99472 4.66675 5.16902V13.8607C4.66572 15.5334 5.06432 17.1821 5.82938 18.6696C6.59443 20.1571 7.7038 21.4403 9.06509 22.4124L13.3234 25.4457C13.521 25.5864 13.7575 25.662 14.0001 25.662C14.2426 25.662 14.4792 25.5864 14.6768 25.4457L18.9351 22.4124C20.2964 21.4403 21.4057 20.1571 22.1708 18.6696C22.9359 17.1821 23.3345 15.5334 23.3334 13.8607V5.16902C23.334 4.99472 23.2955 4.82251 23.2208 4.66504C23.1461 4.50756 23.0371 4.36882 22.9018 4.25902ZM21.0001 13.8607C21.001 15.1612 20.6913 16.4432 20.0967 17.5999C19.5021 18.7566 18.6399 19.7545 17.5818 20.5107L14.0001 23.0657L10.4184 20.5107C9.3603 19.7545 8.49807 18.7566 7.9035 17.5999C7.30892 16.4432 6.99919 15.1612 7.00009 13.8607V6.51069C9.44592 6.72002 11.8955 6.15255 14.0001 4.88902C16.1047 6.15255 18.5543 6.72002 21.0001 6.51069V13.8607Z" fill="#C4A141"/>
</svg>
