<svg width="28" height="28" viewBox="0 0 28 28" fill="none" xmlns="http://www.w3.org/2000/svg">
<path d="M9.33342 19.2507C9.10267 19.2507 8.87711 19.3191 8.68525 19.4473C8.49339 19.5755 8.34386 19.7577 8.25556 19.9709C8.16725 20.184 8.14415 20.4186 8.18917 20.6449C8.23418 20.8712 8.3453 21.0791 8.50846 21.2423C8.67162 21.4054 8.8795 21.5166 9.10581 21.5616C9.33212 21.6066 9.5667 21.5835 9.77988 21.4952C9.99306 21.4069 10.1753 21.2573 10.3035 21.0655C10.4317 20.8736 10.5001 20.6481 10.5001 20.4173C10.5001 20.1079 10.3772 19.8112 10.1584 19.5924C9.93958 19.3736 9.64283 19.2507 9.33342 19.2507V19.2507ZM14.0001 2.33398C9.33342 2.33398 4.66675 3.93232 4.66675 7.00065V21.0007C4.66675 24.069 9.33342 25.6673 14.0001 25.6673C18.6667 25.6673 23.3334 24.069 23.3334 21.0007V7.00065C23.3334 3.93232 18.6667 2.33398 14.0001 2.33398ZM21.0001 21.0007C21.0001 21.829 18.3401 23.334 14.0001 23.334C9.66008 23.334 7.00008 21.829 7.00008 21.0007V17.1857C9.18416 18.2239 11.5826 18.7316 14.0001 18.6673C16.4175 18.7316 18.816 18.2239 21.0001 17.1857V21.0007ZM21.0001 14.0007C21.0001 14.829 18.3401 16.334 14.0001 16.334C9.66008 16.334 7.00008 14.829 7.00008 14.0007V10.1857C9.18416 11.2239 11.5826 11.7316 14.0001 11.6673C16.4175 11.7316 18.816 11.2239 21.0001 10.1857V14.0007ZM14.0001 9.33398C9.66008 9.33398 7.00008 7.82898 7.00008 7.00065C7.00008 6.17232 9.66008 4.66732 14.0001 4.66732C18.3401 4.66732 21.0001 6.17232 21.0001 7.00065C21.0001 7.82898 18.3401 9.33398 14.0001 9.33398ZM9.33342 12.2507C9.10267 12.2507 8.87711 12.3191 8.68525 12.4473C8.49339 12.5755 8.34386 12.7577 8.25556 12.9709C8.16725 13.184 8.14415 13.4186 8.18917 13.6449C8.23418 13.8712 8.3453 14.0791 8.50846 14.2423C8.67162 14.4054 8.8795 14.5166 9.10581 14.5616C9.33212 14.6066 9.5667 14.5835 9.77988 14.4952C9.99306 14.4069 10.1753 14.2573 10.3035 14.0655C10.4317 13.8736 10.5001 13.6481 10.5001 13.4173C10.5001 13.1079 10.3772 12.8112 10.1584 12.5924C9.93958 12.3736 9.64283 12.2507 9.33342 12.2507V12.2507Z" fill="#C4A141"/>
</svg>
