<svg width="28" height="28" viewBox="0 0 28 28" fill="none" xmlns="http://www.w3.org/2000/svg">
<path d="M24.9783 10.0915C24.9783 10.0915 24.9783 10.0915 24.9783 10.0215C24.1635 7.77445 22.6781 5.83189 20.7232 4.45662C18.7682 3.08134 16.438 2.33973 14.0478 2.33209C11.6575 2.32445 9.32266 3.05117 7.35895 4.41392C5.39525 5.77667 3.8975 7.7097 3.06832 9.9515C3.02342 10.0397 2.99196 10.134 2.97499 10.2315C2.55264 11.4431 2.33577 12.7167 2.33332 13.9998C2.32754 15.7032 2.69483 17.3872 3.40938 18.9334C4.12393 20.4797 5.16841 21.8507 6.46943 22.9502C7.77044 24.0497 9.29643 24.851 10.9402 25.2977C12.5839 25.7444 14.3056 25.8258 15.9841 25.5361C17.6627 25.2464 19.2575 24.5926 20.6564 23.6208C22.0553 22.6489 23.2244 21.3825 24.0816 19.9105C24.9389 18.4385 25.4633 16.7967 25.6182 15.1004C25.7731 13.4041 25.5547 11.6944 24.9783 10.0915ZM14 4.6665C15.6367 4.66818 17.2442 5.10024 18.6612 5.91933C20.0782 6.73841 21.255 7.91573 22.0733 9.33317H20.6733C20.3264 8.95183 19.8995 8.65183 19.4232 8.45463C18.9469 8.25742 18.4328 8.16788 17.9179 8.19241C17.4029 8.21693 16.8998 8.35491 16.4443 8.59648C15.9889 8.83805 15.5924 9.17725 15.2833 9.58984C14.8742 9.42867 14.4396 9.34175 14 9.33317C13.5604 9.34175 13.1258 9.42867 12.7167 9.58984C12.4075 9.17725 12.0111 8.83805 11.5557 8.59648C11.1002 8.35491 10.597 8.21693 10.0821 8.19241C9.56713 8.16788 9.05312 8.25742 8.57679 8.45463C8.10046 8.65183 7.67358 8.95183 7.32665 9.33317H5.92665C6.74501 7.91573 7.92172 6.73841 9.33875 5.91933C10.7558 5.10024 12.3633 4.66818 14 4.6665ZM19.25 11.6665C19.25 11.8972 19.1816 12.1228 19.0534 12.3147C18.9252 12.5065 18.743 12.6561 18.5298 12.7444C18.3166 12.8327 18.082 12.8558 17.8557 12.8108C17.6294 12.7657 17.4215 12.6546 17.2584 12.4915C17.0952 12.3283 16.9841 12.1204 16.9391 11.8941C16.8941 11.6678 16.9172 11.4332 17.0055 11.22C17.0938 11.0069 17.2433 10.8247 17.4352 10.6965C17.627 10.5683 17.8526 10.4998 18.0833 10.4998C18.3927 10.4998 18.6895 10.6228 18.9083 10.8415C19.1271 11.0603 19.25 11.3571 19.25 11.6665ZM11.0833 11.6665C11.0833 11.8972 11.0149 12.1228 10.8867 12.3147C10.7585 12.5065 10.5763 12.6561 10.3631 12.7444C10.1499 12.8327 9.91536 12.8558 9.68905 12.8108C9.46274 12.7657 9.25486 12.6546 9.09169 12.4915C8.92853 12.3283 8.81742 12.1204 8.7724 11.8941C8.72739 11.6678 8.75049 11.4332 8.83879 11.22C8.92709 11.0069 9.07663 10.8247 9.26849 10.6965C9.46034 10.5683 9.68591 10.4998 9.91665 10.4998C10.2261 10.4998 10.5228 10.6228 10.7416 10.8415C10.9604 11.0603 11.0833 11.3571 11.0833 11.6665ZM14 23.3332C11.5246 23.3332 9.15066 22.3498 7.40032 20.5995C5.64998 18.8492 4.66665 16.4752 4.66665 13.9998C4.67184 13.2126 4.77371 12.4289 4.96999 11.6665H6.41665C6.3888 12.5948 6.73085 13.4961 7.36753 14.1721C8.00422 14.8482 8.88339 15.2437 9.81165 15.2715C10.7399 15.2994 11.6412 14.9573 12.3173 14.3206C12.9933 13.6839 13.3888 12.8048 13.4167 11.8765C13.594 11.7741 13.7952 11.7202 14 11.7202C14.2048 11.7202 14.406 11.7741 14.5833 11.8765C14.6112 12.8048 15.0066 13.6839 15.6827 14.3206C16.3588 14.9573 17.2601 15.2994 18.1883 15.2715C19.1166 15.2437 19.9958 14.8482 20.6324 14.1721C21.2691 13.4961 21.6112 12.5948 21.5833 11.6665H23.03C23.2263 12.4289 23.3281 13.2126 23.3333 13.9998C23.3333 16.4752 22.35 18.8492 20.5996 20.5995C18.8493 22.3498 16.4753 23.3332 14 23.3332ZM16.7533 16.6015C15.9734 17.2303 15.0018 17.5732 14 17.5732C12.9982 17.5732 12.0265 17.2303 11.2467 16.6015C11.0084 16.4035 10.7012 16.3082 10.3927 16.3366C10.0842 16.3651 9.79968 16.5149 9.60165 16.7532C9.40362 16.9914 9.30835 17.2986 9.33679 17.6071C9.36524 17.9156 9.51507 18.2001 9.75332 18.3982C10.9449 19.3929 12.4478 19.9377 14 19.9377C15.5522 19.9377 17.0551 19.3929 18.2467 18.3982C18.4849 18.2001 18.6347 17.9156 18.6632 17.6071C18.6916 17.2986 18.5963 16.9914 18.3983 16.7532C18.3003 16.6352 18.1799 16.5377 18.0442 16.4662C17.9085 16.3948 17.76 16.3507 17.6072 16.3366C17.2987 16.3082 16.9916 16.4035 16.7533 16.6015Z" fill="#C4A141"/>
</svg>
