<svg width="28" height="28" viewBox="0 0 28 28" fill="none" xmlns="http://www.w3.org/2000/svg">
<path d="M13.9999 7.00065C13.6905 7.00065 13.3938 7.12357 13.175 7.34236C12.9562 7.56115 12.8333 7.8579 12.8333 8.16732V19.834C12.8333 20.1434 12.9562 20.4401 13.175 20.6589C13.3938 20.8777 13.6905 21.0007 13.9999 21.0007C14.3093 21.0007 14.6061 20.8777 14.8249 20.6589C15.0437 20.4401 15.1666 20.1434 15.1666 19.834V8.16732C15.1666 7.8579 15.0437 7.56115 14.8249 7.34236C14.6061 7.12357 14.3093 7.00065 13.9999 7.00065ZM8.16658 14.0007C7.85717 14.0007 7.56042 14.1236 7.34163 14.3424C7.12284 14.5612 6.99992 14.8579 6.99992 15.1673V19.834C6.99992 20.1434 7.12284 20.4401 7.34163 20.6589C7.56042 20.8777 7.85717 21.0007 8.16658 21.0007C8.476 21.0007 8.77275 20.8777 8.99154 20.6589C9.21034 20.4401 9.33325 20.1434 9.33325 19.834V15.1673C9.33325 14.8579 9.21034 14.5612 8.99154 14.3424C8.77275 14.1236 8.476 14.0007 8.16658 14.0007ZM19.8333 11.6673C19.5238 11.6673 19.2271 11.7902 19.0083 12.009C18.7895 12.2278 18.6666 12.5246 18.6666 12.834V19.834C18.6666 20.1434 18.7895 20.4401 19.0083 20.6589C19.2271 20.8777 19.5238 21.0007 19.8333 21.0007C20.1427 21.0007 20.4394 20.8777 20.6582 20.6589C20.877 20.4401 20.9999 20.1434 20.9999 19.834V12.834C20.9999 12.5246 20.877 12.2278 20.6582 12.009C20.4394 11.7902 20.1427 11.6673 19.8333 11.6673ZM22.1666 2.33398H5.83325C4.90499 2.33398 4.01476 2.70273 3.35838 3.35911C2.702 4.01549 2.33325 4.90573 2.33325 5.83398V22.1673C2.33325 23.0956 2.702 23.9858 3.35838 24.6422C4.01476 25.2986 4.90499 25.6673 5.83325 25.6673H22.1666C23.0948 25.6673 23.9851 25.2986 24.6415 24.6422C25.2978 23.9858 25.6666 23.0956 25.6666 22.1673V5.83398C25.6666 4.90573 25.2978 4.01549 24.6415 3.35911C23.9851 2.70273 23.0948 2.33398 22.1666 2.33398ZM23.3333 22.1673C23.3333 22.4767 23.2103 22.7735 22.9915 22.9923C22.7728 23.2111 22.476 23.334 22.1666 23.334H5.83325C5.52383 23.334 5.22709 23.2111 5.00829 22.9923C4.7895 22.7735 4.66659 22.4767 4.66659 22.1673V5.83398C4.66659 5.52456 4.7895 5.22782 5.00829 5.00903C5.22709 4.79023 5.52383 4.66732 5.83325 4.66732H22.1666C22.476 4.66732 22.7728 4.79023 22.9915 5.00903C23.2103 5.22782 23.3333 5.52456 23.3333 5.83398V22.1673Z" fill="#C4A141"/>
</svg>
