<svg width="17" height="18" viewBox="0 0 17 18" fill="none" xmlns="http://www.w3.org/2000/svg">
<path d="M8.79538 1.19253C8.98292 1.38007 9.08828 1.63442 9.08828 1.89964C9.08828 2.16485 8.98292 2.41921 8.79538 2.60674L3.42844 7.97368L15.1593 7.96661C15.4256 7.96661 15.681 8.0724 15.8693 8.2607C16.0576 8.44901 16.1634 8.7044 16.1634 8.9707C16.1634 9.237 16.0576 9.4924 15.8693 9.6807C15.681 9.86901 15.4256 9.97479 15.1593 9.97479L3.42844 9.96772L8.79538 15.3347C8.98292 15.5222 9.08828 15.7766 9.08828 16.0418C9.08828 16.307 8.98292 16.5613 8.79538 16.7489C8.60785 16.9364 8.35349 17.0418 8.08828 17.0418C7.82306 17.0418 7.56871 16.9364 7.38117 16.7489L0.310104 9.67781C0.218819 9.58429 0.14675 9.47378 0.0979726 9.35254C-0.00305508 9.10801 -0.00305508 8.8334 0.0979726 8.58886C0.14675 8.46762 0.218819 8.35712 0.310104 8.2636L7.38117 1.19253C7.56871 1.00499 7.82306 0.899635 8.08828 0.899635C8.35349 0.899635 8.60785 1.00499 8.79538 1.19253Z" fill="#B2B2B2"/>
</svg>
