<svg width="18" height="18" viewBox="0 0 18 18" fill="none" xmlns="http://www.w3.org/2000/svg">
<path d="M8.32229 1.19253C8.13475 1.38007 8.0294 1.63442 8.0294 1.89964C8.0294 2.16485 8.13475 2.41921 8.32229 2.60674L13.6892 7.97368L1.95833 7.96661C1.69203 7.96661 1.43663 8.0724 1.24833 8.2607C1.06003 8.44901 0.954239 8.7044 0.954239 8.9707C0.954239 9.237 1.06003 9.4924 1.24833 9.6807C1.43663 9.86901 1.69203 9.97479 1.95833 9.97479L13.6892 9.96772L8.32229 15.3347C8.13475 15.5222 8.0294 15.7766 8.0294 16.0418C8.0294 16.307 8.13475 16.5613 8.32229 16.7489C8.50983 16.9364 8.76418 17.0418 9.0294 17.0418C9.29461 17.0418 9.54897 16.9364 9.7365 16.7489L16.8076 9.67781C16.8989 9.58429 16.9709 9.47378 17.0197 9.35254C17.1207 9.10801 17.1207 8.8334 17.0197 8.58886C16.9709 8.46762 16.8989 8.35712 16.8076 8.2636L9.7365 1.19253C9.54897 1.00499 9.29461 0.899635 9.0294 0.899635C8.76418 0.899635 8.50983 1.00499 8.32229 1.19253Z" fill="black"/>
</svg>
