<svg width="24" height="24" viewBox="0 0 24 24" fill="none" xmlns="http://www.w3.org/2000/svg">
<g clip-path="url(#clip0_356_2506)">
<path d="M12 0C18.6274 0 24 5.37264 24 12C24 18.1354 19.396 23.1945 13.4541 23.9121V15.668H16.7002L17.374 12.001V12H13.4541V10.7031C13.4541 10.1521 13.5191 9.69855 13.6523 9.33008C13.6797 9.25448 13.7097 9.18269 13.7432 9.11426C13.7685 9.06246 13.7933 9.01165 13.8223 8.96387C14.2241 8.30109 14.976 8.02054 16.1816 8.02051C16.7927 8.02051 17.2852 8.03567 17.5684 8.06543V4.74023C17.0317 4.59147 15.7202 4.44242 14.96 4.44238C12.4199 4.44238 10.7483 5.20285 9.86328 6.79785C9.53743 7.38478 9.31854 8.08433 9.20215 8.90137C9.19611 8.94376 9.18908 8.98628 9.18359 9.0293C9.12851 9.46119 9.10059 9.92491 9.10059 10.4209V12H6.62695V15.668H9.10059V23.6455C3.87434 22.3482 0 17.6272 0 12C5.63753e-08 5.37264 5.37264 5.63736e-08 12 0Z" fill="black"/>
</g>
<defs>
<clipPath id="clip0_356_2506">
<rect width="24" height="24" fill="white"/>
</clipPath>
</defs>
</svg>
