<svg width="28" height="28" viewBox="0 0 28 28" fill="none" xmlns="http://www.w3.org/2000/svg">
<path d="M23.3334 18.6674C22.6092 18.6711 21.9041 18.8994 21.3151 19.3207L18.4567 17.6291C18.5916 17.2104 18.6624 16.7738 18.6667 16.334C18.6634 15.3021 18.3181 14.3003 17.6848 13.4855C17.0515 12.6706 16.166 12.0887 15.1667 11.8307V9.12405C15.9452 8.84884 16.6012 8.3073 17.019 7.59516C17.4367 6.88301 17.5893 6.04611 17.4497 5.23236C17.3101 4.41862 16.8873 3.68043 16.256 3.14826C15.6248 2.6161 14.8257 2.32422 14.0001 2.32422C13.1744 2.32422 12.3754 2.6161 11.7441 3.14826C11.1129 3.68043 10.6901 4.41862 10.5505 5.23236C10.4109 6.04611 10.5634 6.88301 10.9812 7.59516C11.3989 8.3073 12.055 8.84884 12.8334 9.12405V11.8307C11.8342 12.0887 10.9487 12.6706 10.3154 13.4855C9.6821 14.3003 9.33677 15.3021 9.33342 16.334C9.33775 16.7738 9.40855 17.2104 9.54342 17.6291L6.68508 19.3207C6.0961 18.8994 5.39092 18.6711 4.66675 18.6674C3.97451 18.6674 3.29783 18.8727 2.72225 19.2572C2.14668 19.6418 1.69808 20.1884 1.43317 20.828C1.16826 21.4675 1.09895 22.1713 1.234 22.8502C1.36905 23.5291 1.70239 24.1528 2.19188 24.6423C2.68136 25.1317 3.305 25.4651 3.98393 25.6001C4.66287 25.7352 5.3666 25.6659 6.00614 25.401C6.64568 25.1361 7.19231 24.6874 7.57689 24.1119C7.96148 23.5363 8.16675 22.8596 8.16675 22.1674C8.16243 21.8514 8.11534 21.5374 8.02675 21.2341L10.7101 19.6357C11.5844 20.5049 12.7672 20.9928 14.0001 20.9928C15.2329 20.9928 16.4157 20.5049 17.2901 19.6357L19.9734 21.2341C19.7779 21.9406 19.8092 22.6907 20.0629 23.3785C20.3166 24.0663 20.7798 24.657 21.3872 25.0675C21.9947 25.4779 22.7156 25.6872 23.4484 25.6659C24.1812 25.6446 24.8888 25.3937 25.4713 24.9487C26.0539 24.5037 26.482 23.887 26.6953 23.1856C26.9086 22.4843 26.8962 21.7336 26.66 21.0396C26.4238 20.3456 25.9757 19.7433 25.3788 19.3177C24.7819 18.8921 24.0665 18.6646 23.3334 18.6674ZM4.66675 23.334C4.436 23.334 4.21044 23.2656 4.01858 23.1374C3.82673 23.0092 3.67719 22.827 3.58889 22.6138C3.50059 22.4007 3.47748 22.1661 3.5225 21.9398C3.56752 21.7135 3.67863 21.5056 3.84179 21.3424C4.00495 21.1793 4.21283 21.0681 4.43914 21.0231C4.66546 20.9781 4.90003 21.0012 5.11321 21.0895C5.32639 21.1778 5.5086 21.3274 5.6368 21.5192C5.76499 21.7111 5.83342 21.9366 5.83342 22.1674C5.83342 22.4768 5.7105 22.7735 5.49171 22.9923C5.27291 23.2111 4.97617 23.334 4.66675 23.334ZM14.0001 4.66738C14.2308 4.66738 14.4564 4.73581 14.6482 4.864C14.8401 4.9922 14.9896 5.17441 15.0779 5.38759C15.1662 5.60077 15.1893 5.83534 15.1443 6.06166C15.0993 6.28797 14.9882 6.49585 14.825 6.65901C14.6619 6.82217 14.454 6.93328 14.2277 6.9783C14.0014 7.02332 13.7668 7.00021 13.5536 6.91191C13.3404 6.82361 13.1582 6.67407 13.03 6.48222C12.9018 6.29036 12.8334 6.0648 12.8334 5.83405C12.8334 5.52463 12.9563 5.22789 13.1751 5.00909C13.3939 4.7903 13.6907 4.66738 14.0001 4.66738ZM14.0001 18.6674C13.5386 18.6674 13.0875 18.5305 12.7038 18.2741C12.32 18.0178 12.021 17.6533 11.8444 17.227C11.6678 16.8006 11.6216 16.3315 11.7116 15.8788C11.8016 15.4262 12.0238 15.0105 12.3502 14.6841C12.6765 14.3578 13.0922 14.1356 13.5449 14.0456C13.9975 13.9555 14.4666 14.0017 14.893 14.1783C15.3194 14.3549 15.6838 14.654 15.9402 15.0377C16.1966 15.4214 16.3334 15.8726 16.3334 16.334C16.3334 16.9529 16.0876 17.5464 15.65 17.984C15.2124 18.4215 14.6189 18.6674 14.0001 18.6674ZM23.3334 23.334C23.1027 23.334 22.8771 23.2656 22.6853 23.1374C22.4934 23.0092 22.3439 22.827 22.2556 22.6138C22.1673 22.4007 22.1441 22.1661 22.1892 21.9398C22.2342 21.7135 22.3453 21.5056 22.5085 21.3424C22.6716 21.1793 22.8795 21.0681 23.1058 21.0231C23.3321 20.9781 23.5667 21.0012 23.7799 21.0895C23.9931 21.1778 24.1753 21.3274 24.3035 21.5192C24.4317 21.7111 24.5001 21.9366 24.5001 22.1674C24.5001 22.4768 24.3772 22.7735 24.1584 22.9923C23.9396 23.2111 23.6428 23.334 23.3334 23.334Z" fill="white"/>
</svg>
