<svg width="24" height="24" viewBox="0 0 24 24" fill="none" xmlns="http://www.w3.org/2000/svg">
<path d="M12 0C17.6569 0 20.4849 0.000452518 22.2422 1.75781C23.9996 3.51517 24 6.34317 24 12C24 17.6569 23.9996 20.4849 22.2422 22.2422C20.4849 23.9996 17.6569 24 12 24C6.34317 24 3.51517 23.9996 1.75781 22.2422C0.000452518 20.4849 0 17.6569 0 12C0 6.34315 0.000452518 3.51517 1.75781 1.75781C3.51517 0.000452518 6.34315 0 12 0ZM5.08984 9.74023V18.7402H8.08984V9.74023H5.08984ZM15.46 9.5C14.9146 9.47987 14.374 9.60972 13.8965 9.87402C13.4192 10.1383 13.0225 10.5273 12.75 11V9.73047H9.75V18.7305H12.75V13.5449C12.7581 13.3601 12.791 13.1761 12.8496 13C12.9641 12.6828 13.174 12.4087 13.4492 12.2139C13.7244 12.0191 14.0525 11.9127 14.3896 11.9102C15.4796 11.9102 15.9101 12.7003 15.9102 13.9102V18.7402H18.9102V13.5605C18.9102 10.7905 17.46 9.5 15.46 9.5ZM6.58984 5.36035C6.17626 5.36041 5.7798 5.52497 5.4873 5.81738C5.19484 6.10992 5.03027 6.50723 5.03027 6.9209C5.03047 7.33436 5.19493 7.73106 5.4873 8.02344C5.77978 8.31577 6.17631 8.48041 6.58984 8.48047C6.8095 8.50537 7.0325 8.484 7.24316 8.41699C7.45365 8.35002 7.6477 8.23886 7.8125 8.0918C7.97735 7.94459 8.10985 7.76322 8.2002 7.56152C8.2903 7.36008 8.33681 7.14157 8.33691 6.9209C8.33691 6.70004 8.29035 6.48092 8.2002 6.2793C8.10988 6.07756 7.97735 5.89627 7.8125 5.74902C7.64776 5.60199 7.45356 5.49181 7.24316 5.4248C7.03247 5.35778 6.80954 5.33544 6.58984 5.36035Z" fill="black"/>
</svg>
