<svg xmlns="http://www.w3.org/2000/svg" version="1.1" xmlns:xlink="http://www.w3.org/1999/xlink" width="36" height="39"><svg width="36" height="39" viewBox="0 0 36 39" fill="none" xmlns="http://www.w3.org/2000/svg">
<path d="M33.5424 8.58989L20.5532 0.721858C18.9642 -0.240619 16.9689 -0.240619 15.3799 0.721858L2.39066 8.58989C0.906182 9.48917 0 11.0941 0 12.8242V26.1852C0 27.9166 0.907117 29.5225 2.39284 30.4211L15.382 38.2795C16.9698 39.2402 18.9629 39.2402 20.5507 38.2795L33.5399 30.4211C35.0256 29.5221 35.9327 27.9163 35.9327 26.1852V12.8242C35.9327 11.0938 35.0265 9.48886 33.5421 8.58989H33.5424Z" fill="#F7F0DC"></path>
<path d="M31.9949 12.1121L19.5834 4.59377C18.5901 3.99218 17.3433 3.99218 16.35 4.59377L3.93848 12.1121V25.1543C3.93848 26.2363 4.50527 27.24 5.43385 27.8016L17.9664 35.3837L30.4989 27.8016C31.4275 27.2397 31.9946 26.2363 31.9946 25.1543V12.1121H31.9949Z" fill="#C4A141"></path>
<path d="M17.967 20.5983L13.801 18.0779V18.0776L8.10168 14.6295V14.6298L3.93848 12.1113V18.1755L8.10168 20.694V29.4146L13.801 32.8627V24.1421L17.967 26.6625V20.5983Z" fill="#DBBB64"></path>
<path d="M31.9944 25.1531C31.9944 26.2351 31.4272 27.2388 30.4987 27.8004L27.8283 29.4159L22.129 32.864L17.9658 35.3822V29.318L22.129 26.7995V18.079L27.8283 14.6309V23.3514L31.9944 20.831V25.1524V25.1531Z" fill="#E0C57C"></path>
<path d="M31.9949 12.1121L27.7614 9.54772L18.9317 14.8963L17.5495 14.059L22.5657 11.0204L19.8021 9.34606L14.7899 12.3874L13.3646 11.5241L22.2002 6.1789L19.5834 4.59377C18.5904 3.99218 17.3433 3.99218 16.35 4.59377L9.13696 8.96317L3.93848 12.1121L17.9667 20.5987L23.1599 17.4573L31.9952 12.1121H31.9949Z" fill="#E0C57C"></path>
</svg><style>@media (prefers-color-scheme: light) { :root { filter: none; } }
@media (prefers-color-scheme: dark) { :root { filter: none; } }
</style></svg>