<svg width="164" height="47" viewBox="0 0 164 47" fill="none" xmlns="http://www.w3.org/2000/svg">
<path d="M39.2925 10.6317L24.0766 1.35142C22.2151 0.216193 19.8778 0.216193 18.0164 1.35142L2.80049 10.6317C1.06153 11.6924 0 13.5854 0 15.626V31.3851C0 33.4272 1.06262 35.3214 2.80304 36.3813L18.019 45.6502C19.8789 46.7833 22.2137 46.7833 24.0736 45.6502L39.2896 36.3813C41.03 35.321 42.0926 33.4269 42.0926 31.3851V15.626C42.0926 13.585 41.0311 11.692 39.2921 10.6317H39.2925Z" fill="#F7F0DC"/>
<path d="M37.4796 14.7847L22.9404 5.91694C21.7769 5.20737 20.3163 5.20737 19.1527 5.91694L4.61353 14.7847V30.1678C4.61353 31.4441 5.27748 32.6279 6.36525 33.2903L21.0462 42.2333L35.7272 33.2903C36.815 32.6275 37.4793 31.4441 37.4793 30.1678V14.7847H37.4796Z" fill="#C4A141"/>
<path d="M21.0469 24.7954L16.1668 21.8227V21.8223L9.49042 17.7553V17.7557L4.61353 14.7852V21.9378L9.49042 24.9083V35.1941L16.1668 39.2611V28.9753L21.0469 31.9481V24.7954Z" fill="#DBBB64"/>
<path d="M37.4796 30.1686C37.4796 31.4449 36.8152 32.6287 35.7275 33.2911L32.5994 35.1966L25.923 39.2636L21.0461 42.2338V35.0811L25.923 32.1106V21.8248L32.5994 17.7578V28.0436L37.4796 25.0709V30.1679V30.1686Z" fill="#E0C57C"/>
<path d="M37.4795 14.7866L32.5203 11.762L22.1769 18.0706L20.5578 17.083L26.4339 13.499L23.1965 11.5242L17.3251 15.1114L15.6554 14.0931L26.0057 7.78853L22.9403 5.91889C21.7771 5.20933 20.3162 5.20933 19.1526 5.91889L10.7031 11.0725L4.6134 14.7866L21.0465 24.7965L27.1299 21.0912L37.4799 14.7866H37.4795Z" fill="#E0C57C"/>
<path d="M59.8498 16.4108H53.954V12.3164H71.0029V16.4108H64.9796V30.9719H59.8494V16.4108H59.8498Z" fill="white"/>
<path d="M76.8462 12.3164H92.874V16.3856H82.0015V19.6864H91.5979V23.474H82.0015V26.903H92.9506V30.9719H76.8462V12.3164Z" fill="white"/>
<path d="M99.1512 12.3164H105.379L113.648 24.2672H113.827L113.673 18.8165V12.3164H118.778V30.9719H112.652L104.409 19.1749H104.179L104.358 24.4206V30.9719H99.1509V12.3164H99.1512Z" fill="white"/>
<path d="M125.744 12.3164H141.772V16.3856H130.899V19.6864H140.496V23.474H130.899V26.903H141.849V30.9719H125.744V12.3164Z" fill="white"/>
<path d="M152.847 16.4108H146.951V12.3164H164V16.4108H157.977V30.9719H152.847V16.4108Z" fill="white"/>
<path d="M59.907 40.5331V36.7949H60.5553V40.5331H59.907Z" fill="white"/>
<path d="M70.6478 40.5331V38.3149H70.6318L70.4335 38.7932L70.1602 39.3946L69.8709 40.007H69.3512L69.137 39.5502L68.7835 38.7661L68.5907 38.3094L68.5747 38.3255V40.5331H67.9268V36.7949H68.532L69.0193 37.864C69.1228 38.0895 69.2219 38.3131 69.3166 38.5352C69.4114 38.7574 69.5068 38.9813 69.6034 39.2068H69.6249L69.9248 38.4925L70.1981 37.864L70.6751 36.7949H71.2965V40.5331H70.6482H70.6478Z" fill="white"/>
<path d="M80.8902 40.5331L80.5954 39.7059H79.2132L78.9133 40.5331H78.2329L79.6417 36.7949H80.1668L81.5753 40.5331H80.8898H80.8902ZM80.1563 38.3953L79.9099 37.6273H79.8935L79.6523 38.3792L79.4012 39.1523H80.4026L80.1563 38.3953Z" fill="white"/>
<path d="M89.8292 39.9738C89.9364 39.9738 90.0355 39.9529 90.1266 39.9117C90.2177 39.8707 90.296 39.8148 90.362 39.7454C90.4283 39.6756 90.4804 39.5941 90.5201 39.501C90.5591 39.4078 90.5792 39.311 90.5792 39.2109V39.0497H89.8023V38.4914H91.2271V39.2273C91.2271 39.4206 91.191 39.5989 91.1196 39.7618C91.0482 39.9248 90.9505 40.0662 90.827 40.1861C90.7038 40.3059 90.5562 40.3991 90.3842 40.4656C90.2126 40.5321 90.0282 40.5646 89.8314 40.5646C89.5953 40.5646 89.3901 40.528 89.2166 40.4546C89.0428 40.3812 88.8993 40.2807 88.7845 40.1539C88.6697 40.0271 88.5848 39.8762 88.5294 39.7027C88.474 39.5291 88.4463 39.342 88.4463 39.1414V38.1856C88.4463 37.9993 88.4736 37.8202 88.5294 37.6485C88.5844 37.4764 88.6686 37.3251 88.7808 37.1947C88.8938 37.0643 89.0352 36.9601 89.2068 36.883C89.3785 36.8059 89.58 36.7676 89.8121 36.7676C90.1404 36.7676 90.4174 36.8476 90.6422 37.0065C90.8671 37.1662 91.0263 37.3763 91.1192 37.6379L90.5085 37.8794C90.4618 37.7329 90.3791 37.6134 90.2592 37.5221C90.1393 37.4307 89.9888 37.3851 89.8066 37.3851C89.6816 37.3851 89.5745 37.4066 89.4852 37.4497C89.3959 37.4925 89.3227 37.5506 89.2655 37.6244C89.2083 37.6978 89.1656 37.7811 89.1365 37.8743C89.1081 37.9675 89.0938 38.0625 89.0938 38.1589V39.1688C89.0938 39.269 89.1092 39.3676 89.1394 39.4644C89.1696 39.5609 89.2152 39.6468 89.2761 39.722C89.3365 39.7973 89.4127 39.8583 89.5038 39.9047C89.5945 39.9511 89.7028 39.9745 89.8278 39.9745L89.8292 39.9738Z" fill="white"/>
<path d="M99.7074 36.7676C99.9217 36.7676 100.114 36.8038 100.286 36.875C100.457 36.9466 100.604 37.0453 100.725 37.1706C100.847 37.2959 100.939 37.4454 101.004 37.6193C101.068 37.7932 101.101 37.9817 101.101 38.186V39.1418C101.101 39.3607 101.067 39.5576 101.001 39.7326C100.935 39.908 100.842 40.0578 100.72 40.1813C100.599 40.3048 100.453 40.3998 100.281 40.4659C100.11 40.5324 99.9187 40.565 99.7081 40.565C99.476 40.565 99.2726 40.527 99.0974 40.4499C98.9221 40.3728 98.7778 40.269 98.6637 40.1382C98.5493 40.0074 98.4636 39.8561 98.4064 39.6844C98.3496 39.5123 98.3208 39.3314 98.3208 39.1418V38.186C98.3208 37.9996 98.3496 37.8206 98.4064 37.6489C98.4636 37.4768 98.5493 37.3255 98.6637 37.1951C98.7778 37.0646 98.9224 36.9605 99.0974 36.8834C99.2723 36.8063 99.476 36.7679 99.7081 36.7679L99.7074 36.7676ZM99.7045 37.3799C99.5791 37.3799 99.4705 37.4015 99.3794 37.4446C99.2879 37.4874 99.2118 37.5455 99.1506 37.6193C99.0897 37.6927 99.0442 37.776 99.0135 37.8692C98.9833 37.9624 98.968 38.0574 98.968 38.1538V39.1582C98.968 39.262 98.9833 39.3614 99.0135 39.456C99.0442 39.551 99.0897 39.6358 99.1506 39.7111C99.2118 39.7863 99.2879 39.8463 99.3794 39.8908C99.4705 39.9358 99.5791 39.9581 99.7045 39.9581C99.8193 39.9581 99.9224 39.9376 100.014 39.8963C100.105 39.8554 100.182 39.7988 100.245 39.7271C100.308 39.6555 100.356 39.5715 100.39 39.475C100.424 39.3782 100.441 39.2726 100.441 39.1582V38.1538C100.441 38.0464 100.424 37.9463 100.39 37.8531C100.356 37.7599 100.308 37.6785 100.245 37.6087C100.182 37.5389 100.105 37.4834 100.014 37.4421C99.9224 37.4011 99.8196 37.3803 99.7045 37.3803V37.3799Z" fill="white"/>
<path d="M118.987 40.5331V38.3149H118.97L118.772 38.7932L118.499 39.3946L118.21 40.007H117.69L117.476 39.5502L117.122 38.7661L116.929 38.3094L116.913 38.3255V40.5331H116.265V36.7949H116.87L117.358 37.864C117.462 38.0895 117.561 38.3131 117.655 38.5352C117.75 38.7574 117.845 38.9813 117.941 39.2068H117.963L118.263 38.4925L118.536 37.864L119.013 36.7949H119.634V40.5331H118.987Z" fill="white"/>
<path d="M129.553 39.7622C129.484 39.9288 129.388 40.0709 129.265 40.1893C129.141 40.3073 128.995 40.3986 128.824 40.463C128.652 40.5276 128.467 40.5598 128.268 40.5598C128.057 40.5598 127.866 40.5247 127.696 40.4553C127.525 40.3855 127.378 40.2887 127.257 40.1652C127.136 40.0417 127.044 39.8959 126.979 39.7274C126.915 39.5594 126.883 39.3767 126.883 39.1797V36.7949H127.531V39.1315C127.531 39.2462 127.548 39.3537 127.582 39.4538C127.616 39.5539 127.664 39.6412 127.728 39.7143C127.792 39.7877 127.871 39.8458 127.963 39.8893C128.056 39.9321 128.161 39.9536 128.278 39.9536C128.499 39.9536 128.676 39.8857 128.809 39.7494C128.942 39.6134 129.01 39.4165 129.01 39.1589V36.7953H129.657V39.2071C129.657 39.4114 129.623 39.5963 129.553 39.7629V39.7622Z" fill="white"/>
<path d="M139.294 40.5331L138.142 38.7928L137.622 37.9389L137.606 37.9444V40.5331H136.958V36.7949H137.558L138.602 38.385L139.234 39.395L139.245 39.3844V36.7953H139.893V40.5335H139.293L139.294 40.5331Z" fill="white"/>
<path d="M148.61 36.7949C148.889 36.7949 149.14 36.8486 149.365 36.9561C149.59 37.0635 149.762 37.2407 149.88 37.4877C149.947 37.624 149.989 37.7847 150.003 37.9711C150.017 38.1574 150.024 38.3668 150.024 38.5995C150.024 38.8611 150.017 39.0884 150.003 39.2817C149.989 39.475 149.951 39.6449 149.89 39.7918C149.829 39.9313 149.752 40.0486 149.657 40.1436C149.562 40.2386 149.456 40.3146 149.338 40.3716C149.22 40.429 149.092 40.4706 148.953 40.4955C148.813 40.5203 148.669 40.5331 148.519 40.5331H147.254V36.7949H148.61ZM147.903 39.9423H148.54C148.698 39.9423 148.83 39.92 148.937 39.8751C149.044 39.8305 149.13 39.7676 149.194 39.6869C149.259 39.6061 149.305 39.5089 149.333 39.3942C149.362 39.2795 149.376 39.1523 149.376 39.0128V38.3145C149.376 37.9817 149.303 37.7438 149.157 37.6002C149.01 37.457 148.801 37.3854 148.529 37.3854H147.903V39.9419L147.903 39.9423Z" fill="white"/>
<path d="M157.266 40.5331V36.7949H157.914V40.5331H157.266Z" fill="white"/>
</svg>
