<svg aria-hidden="true" xmlns="http://www.w3.org/2000/svg" xmlns:xlink="http://www.w3.org/1999/xlink"><symbol viewBox="0 0 28 28" fill="none" id="analytics" xmlns="http://www.w3.org/2000/svg">
<path d="M13.9999 7.00065C13.6905 7.00065 13.3938 7.12357 13.175 7.34236C12.9562 7.56115 12.8333 7.8579 12.8333 8.16732V19.834C12.8333 20.1434 12.9562 20.4401 13.175 20.6589C13.3938 20.8777 13.6905 21.0007 13.9999 21.0007C14.3093 21.0007 14.6061 20.8777 14.8249 20.6589C15.0437 20.4401 15.1666 20.1434 15.1666 19.834V8.16732C15.1666 7.8579 15.0437 7.56115 14.8249 7.34236C14.6061 7.12357 14.3093 7.00065 13.9999 7.00065ZM8.16658 14.0007C7.85717 14.0007 7.56042 14.1236 7.34163 14.3424C7.12284 14.5612 6.99992 14.8579 6.99992 15.1673V19.834C6.99992 20.1434 7.12284 20.4401 7.34163 20.6589C7.56042 20.8777 7.85717 21.0007 8.16658 21.0007C8.476 21.0007 8.77275 20.8777 8.99154 20.6589C9.21034 20.4401 9.33325 20.1434 9.33325 19.834V15.1673C9.33325 14.8579 9.21034 14.5612 8.99154 14.3424C8.77275 14.1236 8.476 14.0007 8.16658 14.0007ZM19.8333 11.6673C19.5238 11.6673 19.2271 11.7902 19.0083 12.009C18.7895 12.2278 18.6666 12.5246 18.6666 12.834V19.834C18.6666 20.1434 18.7895 20.4401 19.0083 20.6589C19.2271 20.8777 19.5238 21.0007 19.8333 21.0007C20.1427 21.0007 20.4394 20.8777 20.6582 20.6589C20.877 20.4401 20.9999 20.1434 20.9999 19.834V12.834C20.9999 12.5246 20.877 12.2278 20.6582 12.009C20.4394 11.7902 20.1427 11.6673 19.8333 11.6673ZM22.1666 2.33398H5.83325C4.90499 2.33398 4.01476 2.70273 3.35838 3.35911C2.702 4.01549 2.33325 4.90573 2.33325 5.83398V22.1673C2.33325 23.0956 2.702 23.9858 3.35838 24.6422C4.01476 25.2986 4.90499 25.6673 5.83325 25.6673H22.1666C23.0948 25.6673 23.9851 25.2986 24.6415 24.6422C25.2978 23.9858 25.6666 23.0956 25.6666 22.1673V5.83398C25.6666 4.90573 25.2978 4.01549 24.6415 3.35911C23.9851 2.70273 23.0948 2.33398 22.1666 2.33398ZM23.3333 22.1673C23.3333 22.4767 23.2103 22.7735 22.9915 22.9923C22.7728 23.2111 22.476 23.334 22.1666 23.334H5.83325C5.52383 23.334 5.22709 23.2111 5.00829 22.9923C4.7895 22.7735 4.66659 22.4767 4.66659 22.1673V5.83398C4.66659 5.52456 4.7895 5.22782 5.00829 5.00903C5.22709 4.79023 5.52383 4.66732 5.83325 4.66732H22.1666C22.476 4.66732 22.7728 4.79023 22.9915 5.00903C23.2103 5.22782 23.3333 5.52456 23.3333 5.83398V22.1673Z" fill="currentColor"/>
</symbol><symbol viewBox="0 0 17 18" fill="none" id="arrow-left" xmlns="http://www.w3.org/2000/svg">
<path d="M8.79538 1.19253C8.98292 1.38007 9.08828 1.63442 9.08828 1.89964C9.08828 2.16485 8.98292 2.41921 8.79538 2.60674L3.42844 7.97368L15.1593 7.96661C15.4256 7.96661 15.681 8.0724 15.8693 8.2607C16.0576 8.44901 16.1634 8.7044 16.1634 8.9707C16.1634 9.237 16.0576 9.4924 15.8693 9.6807C15.681 9.86901 15.4256 9.97479 15.1593 9.97479L3.42844 9.96772L8.79538 15.3347C8.98292 15.5222 9.08828 15.7766 9.08828 16.0418C9.08828 16.307 8.98292 16.5613 8.79538 16.7489C8.60785 16.9364 8.35349 17.0418 8.08828 17.0418C7.82306 17.0418 7.56871 16.9364 7.38117 16.7489L0.310104 9.67781C0.218819 9.58429 0.14675 9.47378 0.0979726 9.35254C-0.00305508 9.10801 -0.00305508 8.8334 0.0979726 8.58886C0.14675 8.46762 0.218819 8.35712 0.310104 8.2636L7.38117 1.19253C7.56871 1.00499 7.82306 0.899635 8.08828 0.899635C8.35349 0.899635 8.60785 1.00499 8.79538 1.19253Z" fill="currentColor"/>
</symbol><symbol viewBox="0 0 18 18" fill="none" id="arrow-right" xmlns="http://www.w3.org/2000/svg">
<path d="M8.32229 1.19253C8.13475 1.38007 8.0294 1.63442 8.0294 1.89964C8.0294 2.16485 8.13475 2.41921 8.32229 2.60674L13.6892 7.97368L1.95833 7.96661C1.69203 7.96661 1.43663 8.0724 1.24833 8.2607C1.06003 8.44901 0.954239 8.7044 0.954239 8.9707C0.954239 9.237 1.06003 9.4924 1.24833 9.6807C1.43663 9.86901 1.69203 9.97479 1.95833 9.97479L13.6892 9.96772L8.32229 15.3347C8.13475 15.5222 8.0294 15.7766 8.0294 16.0418C8.0294 16.307 8.13475 16.5613 8.32229 16.7489C8.50983 16.9364 8.76418 17.0418 9.0294 17.0418C9.29461 17.0418 9.54897 16.9364 9.7365 16.7489L16.8076 9.67781C16.8989 9.58429 16.9709 9.47378 17.0197 9.35254C17.1207 9.10801 17.1207 8.8334 17.0197 8.58886C16.9709 8.46762 16.8989 8.35712 16.8076 8.2636L9.7365 1.19253C9.54897 1.00499 9.29461 0.899635 9.0294 0.899635C8.76418 0.899635 8.50983 1.00499 8.32229 1.19253Z" fill="currentColor"/>
</symbol><symbol viewBox="0 0 11 13" fill="none" id="back" xmlns="http://www.w3.org/2000/svg">
<path d="M9.66328 3.39124L5.987 1.14907C5.53727 0.874789 4.97255 0.874789 4.52282 1.14907L0.846541 3.39124C0.426395 3.64752 0.169922 4.10488 0.169922 4.59792V8.40544C0.169922 8.89882 0.426659 9.35646 0.847158 9.61255L4.52344 11.852C4.97282 12.1257 5.53691 12.1257 5.98629 11.852L9.66257 9.61255C10.0831 9.35637 10.3398 8.89873 10.3398 8.40544V4.59792C10.3398 4.10479 10.0833 3.64743 9.66319 3.39124H9.66328Z" fill="currentColor"/>
</symbol><symbol viewBox="0 0 28 28" fill="none" id="beyond" xmlns="http://www.w3.org/2000/svg">
<path d="M24.4999 2.33398H10.4999C10.1905 2.33398 9.89375 2.4569 9.67496 2.67569C9.45617 2.89449 9.33325 3.19123 9.33325 3.50065V8.16732H6.99992C6.6905 8.16732 6.39375 8.29023 6.17496 8.50903C5.95617 8.72782 5.83325 9.02456 5.83325 9.33398V14.0007H3.49992C3.1905 14.0007 2.89375 14.1236 2.67496 14.3424C2.45617 14.5612 2.33325 14.8579 2.33325 15.1673V24.5007C2.33325 24.8101 2.45617 25.1068 2.67496 25.3256C2.89375 25.5444 3.1905 25.6673 3.49992 25.6673H12.8333C13.1427 25.6673 13.4394 25.5444 13.6582 25.3256C13.877 25.1068 13.9999 24.8101 13.9999 24.5007V22.1673H18.6666C18.976 22.1673 19.2728 22.0444 19.4915 21.8256C19.7103 21.6068 19.8333 21.3101 19.8333 21.0007V18.6673H24.4999C24.8093 18.6673 25.1061 18.5444 25.3249 18.3256C25.5437 18.1068 25.6666 17.8101 25.6666 17.5007V3.50065C25.6666 3.19123 25.5437 2.89449 25.3249 2.67569C25.1061 2.4569 24.8093 2.33398 24.4999 2.33398ZM11.6666 23.334H4.66659V16.334H11.6666V23.334ZM17.4999 19.834H13.9999V15.1673C13.9999 14.8579 13.877 14.5612 13.6582 14.3424C13.4394 14.1236 13.1427 14.0007 12.8333 14.0007H8.16658V10.5007H17.4999V19.834ZM23.3333 16.334H19.8333V9.33398C19.8333 9.02456 19.7103 8.72782 19.4915 8.50903C19.2728 8.29023 18.976 8.16732 18.6666 8.16732H11.6666V4.66732H23.3333V16.334Z" fill="currentColor"/>
</symbol><symbol viewBox="0 0 28 28" fill="none" id="big-data" xmlns="http://www.w3.org/2000/svg">
<path d="M9.33342 19.2507C9.10267 19.2507 8.87711 19.3191 8.68525 19.4473C8.49339 19.5755 8.34386 19.7577 8.25556 19.9709C8.16725 20.184 8.14415 20.4186 8.18917 20.6449C8.23418 20.8712 8.3453 21.0791 8.50846 21.2423C8.67162 21.4054 8.8795 21.5166 9.10581 21.5616C9.33212 21.6066 9.5667 21.5835 9.77988 21.4952C9.99306 21.4069 10.1753 21.2573 10.3035 21.0655C10.4317 20.8736 10.5001 20.6481 10.5001 20.4173C10.5001 20.1079 10.3772 19.8112 10.1584 19.5924C9.93958 19.3736 9.64283 19.2507 9.33342 19.2507ZM14.0001 2.33398C9.33342 2.33398 4.66675 3.93232 4.66675 7.00065V21.0007C4.66675 24.069 9.33342 25.6673 14.0001 25.6673C18.6667 25.6673 23.3334 24.069 23.3334 21.0007V7.00065C23.3334 3.93232 18.6667 2.33398 14.0001 2.33398ZM21.0001 21.0007C21.0001 21.829 18.3401 23.334 14.0001 23.334C9.66008 23.334 7.00008 21.829 7.00008 21.0007V17.1856C9.18416 18.2239 11.5826 18.7316 14.0001 18.6673C16.4175 18.7316 18.816 18.2239 21.0001 17.1856V21.0007ZM21.0001 14.0007C21.0001 14.829 18.3401 16.334 14.0001 16.334C9.66008 16.334 7.00008 14.829 7.00008 14.0007V10.1857C9.18416 11.2239 11.5826 11.7316 14.0001 11.6673C16.4175 11.7316 18.816 11.2239 21.0001 10.1857V14.0007ZM14.0001 9.33398C9.66008 9.33398 7.00008 7.82898 7.00008 7.00065C7.00008 6.17232 9.66008 4.66732 14.0001 4.66732C18.3401 4.66732 21.0001 6.17232 21.0001 7.00065C21.0001 7.82898 18.3401 9.33398 14.0001 9.33398ZM9.33342 12.2507C9.10267 12.2507 8.87711 12.3191 8.68525 12.4473C8.49339 12.5755 8.34386 12.7577 8.25556 12.9709C8.16725 13.184 8.14415 13.4186 8.18917 13.6449C8.23418 13.8712 8.3453 14.0791 8.50846 14.2423C8.67162 14.4054 8.8795 14.5166 9.10581 14.5616C9.33212 14.6066 9.5667 14.5835 9.77988 14.4952C9.99306 14.4069 10.1753 14.2573 10.3035 14.0655C10.4317 13.8736 10.5001 13.6481 10.5001 13.4173C10.5001 13.1079 10.3772 12.8112 10.1584 12.5924C9.93958 12.3736 9.64283 12.2507 9.33342 12.2507Z" fill="currentColor"/>
</symbol><symbol viewBox="0 0 24 24" fill="none" id="chevron-down" xmlns="http://www.w3.org/2000/svg">
<path d="M12.7105 15.5407L18.3605 9.88071C18.4542 9.78775 18.5286 9.67715 18.5793 9.55529C18.6301 9.43343 18.6562 9.30273 18.6562 9.17071C18.6562 9.0387 18.6301 8.908 18.5793 8.78614C18.5286 8.66428 18.4542 8.55368 18.3605 8.46071C18.1731 8.27446 17.9196 8.16992 17.6555 8.16992C17.3913 8.16992 17.1378 8.27446 16.9505 8.46071L11.9505 13.4107L7.00045 8.46071C6.81309 8.27446 6.55964 8.16992 6.29545 8.16992C6.03127 8.16992 5.77781 8.27446 5.59045 8.46071C5.49596 8.55333 5.42079 8.66377 5.3693 8.78565C5.3178 8.90752 5.291 9.03841 5.29045 9.17071C5.291 9.30302 5.3178 9.4339 5.3693 9.55578C5.42079 9.67765 5.49596 9.7881 5.59045 9.88071L11.2405 15.5407C11.3341 15.6422 11.4477 15.7232 11.5742 15.7786C11.7007 15.834 11.8373 15.8626 11.9755 15.8626C12.1136 15.8626 12.2502 15.834 12.3767 15.7786C12.5032 15.7232 12.6168 15.6422 12.7105 15.5407Z" fill="currentColor"/>
</symbol><symbol viewBox="0 0 7 12" fill="none" id="chevron-right" xmlns="http://www.w3.org/2000/svg">
<path d="M6.32994 5.2897L2.08994 1.0497C1.99698 0.955976 1.88638 0.881582 1.76452 0.830813C1.64266 0.780044 1.51195 0.753906 1.37994 0.753906C1.24793 0.753906 1.11723 0.780044 0.995366 0.830813C0.873507 0.881582 0.762906 0.955976 0.669943 1.0497C0.483692 1.23707 0.37915 1.49052 0.37915 1.7547C0.37915 2.01889 0.483692 2.27234 0.669943 2.4597L4.20994 5.9997L0.669943 9.5397C0.483692 9.72707 0.37915 9.98052 0.37915 10.2447C0.37915 10.5089 0.483692 10.7623 0.669943 10.9497C0.763383 11.0424 0.874199 11.1157 0.996037 11.1655C1.11787 11.2152 1.24834 11.2405 1.37994 11.2397C1.51155 11.2405 1.64201 11.2152 1.76385 11.1655C1.88569 11.1157 1.9965 11.0424 2.08994 10.9497L6.32994 6.7097C6.42367 6.61674 6.49806 6.50614 6.54883 6.38428C6.5996 6.26242 6.62574 6.13172 6.62574 5.9997C6.62574 5.86769 6.5996 5.73699 6.54883 5.61513C6.49806 5.49327 6.42367 5.38267 6.32994 5.2897Z" fill="currentColor"/>
</symbol><symbol viewBox="0 0 12 12" fill="none" id="close" xmlns="http://www.w3.org/2000/svg">
<path d="M7.40994 6.00019L11.7099 1.71019C11.8982 1.52188 12.004 1.26649 12.004 1.00019C12.004 0.733884 11.8982 0.478489 11.7099 0.290185C11.5216 0.101882 11.2662 -0.00390625 10.9999 -0.00390625C10.7336 -0.00390625 10.4782 0.101882 10.2899 0.290185L5.99994 4.59019L1.70994 0.290185C1.52164 0.101882 1.26624 -0.00390625 0.999939 -0.00390625C0.733637 -0.00390625 0.478243 0.101882 0.289939 0.290185C0.101635 0.478489 -0.00415277 0.733884 -0.00415277 1.00019C-0.00415278 1.26649 0.101635 1.52188 0.289939 1.71019L4.58994 6.00019L0.289939 10.2902C0.196211 10.3831 0.121816 10.4937 0.0710478 10.6156C0.0202791 10.7375 -0.00585938 10.8682 -0.00585938 11.0002C-0.00585938 11.1322 0.0202791 11.2629 0.0710478 11.3848C0.121816 11.5066 0.196211 11.6172 0.289939 11.7102C0.382902 11.8039 0.493503 11.8783 0.615362 11.9291C0.737221 11.9798 0.867927 12.006 0.999939 12.006C1.13195 12.006 1.26266 11.9798 1.38452 11.9291C1.50638 11.8783 1.61698 11.8039 1.70994 11.7102L5.99994 7.41019L10.2899 11.7102C10.3829 11.8039 10.4935 11.8783 10.6154 11.9291C10.7372 11.9798 10.8679 12.006 10.9999 12.006C11.132 12.006 11.2627 11.9798 11.3845 11.9291C11.5064 11.8783 11.617 11.8039 11.7099 11.7102C11.8037 11.6172 11.8781 11.5066 11.9288 11.3848C11.9796 11.2629 12.0057 11.1322 12.0057 11.0002C12.0057 10.8682 11.9796 10.7375 11.9288 10.6156C11.8781 10.4937 11.8037 10.3831 11.7099 10.2902L7.40994 6.00019Z" fill="currentColor"/>
</symbol><symbol viewBox="0 0 24 24" fill="none" id="facebook" xmlns="http://www.w3.org/2000/svg">
<g clip-path="url(#jclip0_356_2506)">
<path d="M12 0C18.6274 0 24 5.37264 24 12C24 18.1354 19.396 23.1945 13.4541 23.9121V15.668H16.7002L17.374 12.001V12H13.4541V10.7031C13.4541 10.1521 13.5191 9.69855 13.6523 9.33008C13.6797 9.25448 13.7097 9.18269 13.7432 9.11426C13.7685 9.06246 13.7933 9.01165 13.8223 8.96387C14.2241 8.30109 14.976 8.02054 16.1816 8.02051C16.7927 8.02051 17.2852 8.03567 17.5684 8.06543V4.74023C17.0317 4.59147 15.7202 4.44242 14.96 4.44238C12.4199 4.44238 10.7483 5.20285 9.86328 6.79785C9.53743 7.38478 9.31854 8.08433 9.20215 8.90137C9.19611 8.94376 9.18908 8.98628 9.18359 9.0293C9.12851 9.46119 9.10059 9.92491 9.10059 10.4209V12H6.62695V15.668H9.10059V23.6455C3.87434 22.3482 0 17.6272 0 12C5.63753e-08 5.37264 5.37264 5.63736e-08 12 0Z" fill="currentColor"/>
</g>
<defs>
<clipPath id="jclip0_356_2506">
<rect width="24" height="24" fill="currentColor"/>
</clipPath>
</defs>
</symbol><symbol viewBox="0 0 24 24" fill="none" id="github" xmlns="http://www.w3.org/2000/svg">
<path d="M12 2.24609C9.6255 2.24619 7.32849 3.09121 5.51999 4.62994C3.71149 6.16867 2.50953 8.30071 2.12916 10.6446C1.74879 12.9884 2.21485 15.3912 3.44393 17.4228C4.67301 19.4545 6.58491 20.9826 8.83755 21.7336C9.33755 21.8211 9.52505 21.5211 9.52505 21.2586C9.52505 21.0211 9.51254 20.2336 9.51254 19.3961C7.00003 19.8586 6.35003 18.7836 6.15003 18.2211C5.9281 17.674 5.5763 17.1892 5.12503 16.8086C4.77503 16.6211 4.27503 16.1586 5.11252 16.1461C5.4323 16.1808 5.73901 16.2921 6.00666 16.4705C6.2743 16.6489 6.49499 16.8892 6.65003 17.1711C6.7868 17.4168 6.97071 17.6331 7.19122 17.8076C7.41173 17.9821 7.6645 18.1114 7.93506 18.188C8.20562 18.2646 8.48864 18.2871 8.76791 18.2542C9.04717 18.2213 9.3172 18.1336 9.56251 17.9961C9.6058 17.4877 9.83237 17.0124 10.2 16.6586C7.97503 16.4086 5.65003 15.5461 5.65003 11.7211C5.63597 10.7273 6.00271 9.7657 6.67503 9.03362C6.36931 8.16984 6.40508 7.22191 6.77503 6.38362C6.77503 6.38362 7.6125 6.12111 9.52503 7.40862C11.1613 6.9586 12.8887 6.9586 14.525 7.40862C16.4375 6.10862 17.275 6.38362 17.275 6.38362C17.645 7.2219 17.6808 8.16985 17.375 9.03362C18.0494 9.76445 18.4164 10.7269 18.4 11.7211C18.4 15.5586 16.0625 16.4086 13.8375 16.6586C14.0762 16.9005 14.26 17.1909 14.3764 17.5101C14.4929 17.8293 14.5393 18.1699 14.5125 18.5086C14.5125 19.8461 14.5 20.9211 14.5 21.2586C14.5 21.5211 14.6875 21.8336 15.1875 21.7336C17.4362 20.9765 19.3426 19.4449 20.5664 17.4121C21.7903 15.3794 22.2519 12.9779 21.8689 10.6363C21.4859 8.29474 20.2832 6.16547 18.4755 4.6286C16.6678 3.09174 14.3727 2.24733 12 2.24609Z" fill="currentColor"/>
</symbol><symbol viewBox="0 0 28 28" fill="none" id="interactivity" xmlns="http://www.w3.org/2000/svg">
<path d="M23.3334 18.6674C22.6092 18.6711 21.9041 18.8994 21.3151 19.3207L18.4567 17.6291C18.5916 17.2104 18.6624 16.7738 18.6667 16.334C18.6634 15.3021 18.3181 14.3003 17.6848 13.4855C17.0515 12.6706 16.166 12.0887 15.1667 11.8307V9.12405C15.9452 8.84884 16.6012 8.3073 17.019 7.59516C17.4367 6.88301 17.5893 6.04611 17.4497 5.23236C17.3101 4.41862 16.8873 3.68043 16.256 3.14826C15.6248 2.6161 14.8257 2.32422 14.0001 2.32422C13.1744 2.32422 12.3754 2.6161 11.7441 3.14826C11.1129 3.68043 10.6901 4.41862 10.5505 5.23236C10.4109 6.04611 10.5634 6.88301 10.9812 7.59516C11.3989 8.3073 12.055 8.84884 12.8334 9.12405V11.8307C11.8342 12.0887 10.9487 12.6706 10.3154 13.4855C9.6821 14.3003 9.33677 15.3021 9.33342 16.334C9.33775 16.7738 9.40855 17.2104 9.54342 17.6291L6.68508 19.3207C6.0961 18.8994 5.39092 18.6711 4.66675 18.6674C3.97451 18.6674 3.29783 18.8727 2.72225 19.2572C2.14668 19.6418 1.69808 20.1884 1.43317 20.828C1.16826 21.4675 1.09895 22.1713 1.234 22.8502C1.36905 23.5291 1.70239 24.1528 2.19188 24.6423C2.68136 25.1317 3.305 25.4651 3.98393 25.6001C4.66287 25.7352 5.3666 25.6659 6.00614 25.401C6.64568 25.1361 7.19231 24.6874 7.57689 24.1119C7.96148 23.5363 8.16675 22.8596 8.16675 22.1674C8.16243 21.8514 8.11534 21.5374 8.02675 21.2341L10.7101 19.6357C11.5844 20.5049 12.7672 20.9928 14.0001 20.9928C15.2329 20.9928 16.4157 20.5049 17.2901 19.6357L19.9734 21.2341C19.7779 21.9406 19.8092 22.6907 20.0629 23.3785C20.3166 24.0663 20.7798 24.657 21.3872 25.0675C21.9947 25.4779 22.7156 25.6872 23.4484 25.6659C24.1812 25.6446 24.8888 25.3937 25.4713 24.9487C26.0539 24.5037 26.482 23.887 26.6953 23.1856C26.9086 22.4843 26.8962 21.7336 26.66 21.0396C26.4238 20.3456 25.9757 19.7433 25.3788 19.3177C24.7819 18.8921 24.0665 18.6646 23.3334 18.6674ZM4.66675 23.334C4.436 23.334 4.21044 23.2656 4.01858 23.1374C3.82673 23.0092 3.67719 22.827 3.58889 22.6138C3.50059 22.4007 3.47748 22.1661 3.5225 21.9398C3.56752 21.7135 3.67863 21.5056 3.84179 21.3424C4.00495 21.1793 4.21283 21.0681 4.43914 21.0231C4.66546 20.9781 4.90003 21.0012 5.11321 21.0895C5.32639 21.1778 5.5086 21.3274 5.6368 21.5192C5.76499 21.7111 5.83342 21.9366 5.83342 22.1674C5.83342 22.4768 5.7105 22.7735 5.49171 22.9923C5.27291 23.2111 4.97617 23.334 4.66675 23.334ZM14.0001 4.66738C14.2308 4.66738 14.4564 4.73581 14.6482 4.864C14.8401 4.9922 14.9896 5.17441 15.0779 5.38759C15.1662 5.60077 15.1893 5.83534 15.1443 6.06166C15.0993 6.28797 14.9882 6.49585 14.825 6.65901C14.6619 6.82217 14.454 6.93328 14.2277 6.9783C14.0014 7.02332 13.7668 7.00021 13.5536 6.91191C13.3404 6.82361 13.1582 6.67407 13.03 6.48222C12.9018 6.29036 12.8334 6.0648 12.8334 5.83405C12.8334 5.52463 12.9563 5.22789 13.1751 5.00909C13.3939 4.7903 13.6907 4.66738 14.0001 4.66738ZM14.0001 18.6674C13.5386 18.6674 13.0875 18.5305 12.7038 18.2741C12.32 18.0178 12.021 17.6533 11.8444 17.227C11.6678 16.8006 11.6216 16.3315 11.7116 15.8788C11.8016 15.4262 12.0238 15.0105 12.3502 14.6841C12.6765 14.3578 13.0922 14.1356 13.5449 14.0456C13.9975 13.9555 14.4666 14.0017 14.893 14.1783C15.3194 14.3549 15.6838 14.654 15.9402 15.0377C16.1966 15.4214 16.3334 15.8726 16.3334 16.334C16.3334 16.9529 16.0876 17.5464 15.65 17.984C15.2124 18.4215 14.6189 18.6674 14.0001 18.6674ZM23.3334 23.334C23.1027 23.334 22.8771 23.2656 22.6853 23.1374C22.4934 23.0092 22.3439 22.827 22.2556 22.6138C22.1673 22.4007 22.1441 22.1661 22.1892 21.9398C22.2342 21.7135 22.3453 21.5056 22.5085 21.3424C22.6716 21.1793 22.8795 21.0681 23.1058 21.0231C23.3321 20.9781 23.5667 21.0012 23.7799 21.0895C23.9931 21.1778 24.1753 21.3274 24.3035 21.5192C24.4317 21.7111 24.5001 21.9366 24.5001 22.1674C24.5001 22.4768 24.3772 22.7735 24.1584 22.9923C23.9396 23.2111 23.6428 23.334 23.3334 23.334Z" fill="currentColor"/>
</symbol><symbol viewBox="0 0 24 24" fill="none" id="linkedin" xmlns="http://www.w3.org/2000/svg">
<path d="M12 0C17.6569 0 20.4849 0.000452518 22.2422 1.75781C23.9996 3.51517 24 6.34317 24 12C24 17.6569 23.9996 20.4849 22.2422 22.2422C20.4849 23.9996 17.6569 24 12 24C6.34317 24 3.51517 23.9996 1.75781 22.2422C0.000452518 20.4849 0 17.6569 0 12C0 6.34315 0.000452518 3.51517 1.75781 1.75781C3.51517 0.000452518 6.34315 0 12 0ZM5.08984 9.74023V18.7402H8.08984V9.74023H5.08984ZM15.46 9.5C14.9146 9.47987 14.374 9.60972 13.8965 9.87402C13.4192 10.1383 13.0225 10.5273 12.75 11V9.73047H9.75V18.7305H12.75V13.5449C12.7581 13.3601 12.791 13.1761 12.8496 13C12.9641 12.6828 13.174 12.4087 13.4492 12.2139C13.7244 12.0191 14.0525 11.9127 14.3896 11.9102C15.4796 11.9102 15.9101 12.7003 15.9102 13.9102V18.7402H18.9102V13.5605C18.9102 10.7905 17.46 9.5 15.46 9.5ZM6.58984 5.36035C6.17626 5.36041 5.7798 5.52497 5.4873 5.81738C5.19484 6.10992 5.03027 6.50723 5.03027 6.9209C5.03047 7.33436 5.19493 7.73106 5.4873 8.02344C5.77978 8.31577 6.17631 8.48041 6.58984 8.48047C6.8095 8.50537 7.0325 8.484 7.24316 8.41699C7.45365 8.35002 7.6477 8.23886 7.8125 8.0918C7.97735 7.94459 8.10985 7.76322 8.2002 7.56152C8.2903 7.36008 8.33681 7.14157 8.33691 6.9209C8.33691 6.70004 8.29035 6.48092 8.2002 6.2793C8.10988 6.07756 7.97735 5.89627 7.8125 5.74902C7.64776 5.60199 7.45356 5.49181 7.24316 5.4248C7.03247 5.35778 6.80954 5.33544 6.58984 5.36035Z" fill="currentColor"/>
</symbol><symbol viewBox="0 0 28 28" fill="none" id="personalization" xmlns="http://www.w3.org/2000/svg">
<path d="M24.9783 10.0915C24.9783 10.0915 24.9783 10.0915 24.9783 10.0215C24.1635 7.77445 22.6781 5.83189 20.7232 4.45662C18.7682 3.08134 16.438 2.33973 14.0478 2.33209C11.6575 2.32445 9.32266 3.05117 7.35895 4.41392C5.39525 5.77667 3.8975 7.7097 3.06832 9.9515C3.02342 10.0397 2.99196 10.134 2.97499 10.2315C2.55264 11.4431 2.33577 12.7167 2.33332 13.9998C2.32754 15.7032 2.69483 17.3872 3.40938 18.9334C4.12393 20.4797 5.16841 21.8507 6.46943 22.9502C7.77044 24.0497 9.29643 24.851 10.9402 25.2977C12.5839 25.7444 14.3056 25.8258 15.9841 25.5361C17.6627 25.2464 19.2575 24.5926 20.6564 23.6208C22.0553 22.6489 23.2244 21.3825 24.0816 19.9105C24.9389 18.4385 25.4633 16.7967 25.6182 15.1004C25.7731 13.4041 25.5547 11.6944 24.9783 10.0915ZM14 4.6665C15.6367 4.66818 17.2442 5.10024 18.6612 5.91933C20.0782 6.73841 21.255 7.91573 22.0733 9.33317H20.6733C20.3264 8.95183 19.8995 8.65183 19.4232 8.45463C18.9469 8.25742 18.4328 8.16788 17.9179 8.19241C17.4029 8.21693 16.8998 8.35491 16.4443 8.59648C15.9889 8.83805 15.5924 9.17725 15.2833 9.58984C14.8742 9.42867 14.4396 9.34175 14 9.33317C13.5604 9.34175 13.1258 9.42867 12.7167 9.58984C12.4075 9.17725 12.0111 8.83805 11.5557 8.59648C11.1002 8.35491 10.597 8.21693 10.0821 8.19241C9.56713 8.16788 9.05312 8.25742 8.57679 8.45463C8.10046 8.65183 7.67358 8.95183 7.32665 9.33317H5.92665C6.74501 7.91573 7.92172 6.73841 9.33875 5.91933C10.7558 5.10024 12.3633 4.66818 14 4.6665ZM19.25 11.6665C19.25 11.8972 19.1816 12.1228 19.0534 12.3147C18.9252 12.5065 18.743 12.6561 18.5298 12.7444C18.3166 12.8327 18.082 12.8558 17.8557 12.8108C17.6294 12.7657 17.4215 12.6546 17.2584 12.4915C17.0952 12.3283 16.9841 12.1204 16.9391 11.8941C16.8941 11.6678 16.9172 11.4332 17.0055 11.22C17.0938 11.0069 17.2433 10.8247 17.4352 10.6965C17.627 10.5683 17.8526 10.4998 18.0833 10.4998C18.3927 10.4998 18.6895 10.6228 18.9083 10.8415C19.1271 11.0603 19.25 11.3571 19.25 11.6665ZM11.0833 11.6665C11.0833 11.8972 11.0149 12.1228 10.8867 12.3147C10.7585 12.5065 10.5763 12.6561 10.3631 12.7444C10.1499 12.8327 9.91536 12.8558 9.68905 12.8108C9.46274 12.7657 9.25486 12.6546 9.09169 12.4915C8.92853 12.3283 8.81742 12.1204 8.7724 11.8941C8.72739 11.6678 8.75049 11.4332 8.83879 11.22C8.92709 11.0069 9.07663 10.8247 9.26849 10.6965C9.46034 10.5683 9.68591 10.4998 9.91665 10.4998C10.2261 10.4998 10.5228 10.6228 10.7416 10.8415C10.9604 11.0603 11.0833 11.3571 11.0833 11.6665ZM14 23.3332C11.5246 23.3332 9.15066 22.3498 7.40032 20.5995C5.64998 18.8492 4.66665 16.4752 4.66665 13.9998C4.67184 13.2126 4.77371 12.4289 4.96999 11.6665H6.41665C6.3888 12.5948 6.73085 13.4961 7.36753 14.1721C8.00422 14.8482 8.88339 15.2437 9.81165 15.2715C10.7399 15.2994 11.6412 14.9573 12.3173 14.3206C12.9933 13.6839 13.3888 12.8048 13.4167 11.8765C13.594 11.7741 13.7952 11.7202 14 11.7202C14.2048 11.7202 14.406 11.7741 14.5833 11.8765C14.6112 12.8048 15.0066 13.6839 15.6827 14.3206C16.3588 14.9573 17.2601 15.2994 18.1883 15.2715C19.1166 15.2437 19.9958 14.8482 20.6324 14.1721C21.2691 13.4961 21.6112 12.5948 21.5833 11.6665H23.03C23.2263 12.4289 23.3281 13.2126 23.3333 13.9998C23.3333 16.4752 22.35 18.8492 20.5996 20.5995C18.8493 22.3498 16.4753 23.3332 14 23.3332ZM16.7533 16.6015C15.9734 17.2303 15.0018 17.5732 14 17.5732C12.9982 17.5732 12.0265 17.2303 11.2467 16.6015C11.0084 16.4035 10.7012 16.3082 10.3927 16.3366C10.0842 16.3651 9.79968 16.5149 9.60165 16.7532C9.40362 16.9914 9.30835 17.2986 9.33679 17.6071C9.36524 17.9156 9.51507 18.2001 9.75332 18.3982C10.9449 19.3929 12.4478 19.9377 14 19.9377C15.5522 19.9377 17.0551 19.3929 18.2467 18.3982C18.4849 18.2001 18.6347 17.9156 18.6632 17.6071C18.6916 17.2986 18.5963 16.9914 18.3983 16.7532C18.3003 16.6352 18.1799 16.5377 18.0442 16.4662C17.9085 16.3948 17.76 16.3507 17.6072 16.3366C17.2987 16.3082 16.9916 16.4035 16.7533 16.6015Z" fill="currentColor"/>
</symbol><symbol viewBox="0 0 28 28" fill="none" id="security" xmlns="http://www.w3.org/2000/svg">
<path d="M22.9018 4.25902C22.7662 4.14938 22.6078 4.0715 22.4382 4.03113C22.2686 3.99075 22.0922 3.98889 21.9218 4.02569C20.6751 4.28695 19.3882 4.29028 18.1402 4.03547C16.8922 3.78065 15.7095 3.27309 14.6651 2.54402C14.4698 2.40854 14.2378 2.33594 14.0001 2.33594C13.7624 2.33594 13.5304 2.40854 13.3351 2.54402C12.2906 3.27309 11.108 3.78065 9.86002 4.03547C8.61202 4.29028 7.32508 4.28695 6.07842 4.02569C5.90802 3.98889 5.73153 3.99075 5.56194 4.03113C5.39235 4.0715 5.23396 4.14938 5.09842 4.25902C4.96306 4.36882 4.85403 4.50756 4.77933 4.66504C4.70463 4.82251 4.66616 4.99472 4.66675 5.16902V13.8607C4.66572 15.5334 5.06432 17.1821 5.82938 18.6696C6.59443 20.1571 7.7038 21.4403 9.06509 22.4124L13.3234 25.4457C13.521 25.5864 13.7575 25.662 14.0001 25.662C14.2426 25.662 14.4792 25.5864 14.6768 25.4457L18.9351 22.4124C20.2964 21.4403 21.4057 20.1571 22.1708 18.6696C22.9359 17.1821 23.3345 15.5334 23.3334 13.8607V5.16902C23.334 4.99472 23.2955 4.82251 23.2208 4.66504C23.1461 4.50756 23.0371 4.36882 22.9018 4.25902ZM21.0001 13.8607C21.001 15.1612 20.6913 16.4432 20.0967 17.5999C19.5021 18.7566 18.6399 19.7545 17.5818 20.5107L14.0001 23.0657L10.4184 20.5107C9.3603 19.7545 8.49807 18.7566 7.9035 17.5999C7.30892 16.4432 6.99919 15.1612 7.00009 13.8607V6.51069C9.44592 6.72002 11.8955 6.15255 14.0001 4.88902C16.1047 6.15255 18.5543 6.72002 21.0001 6.51069V13.8607Z" fill="currentColor"/>
</symbol><symbol fill="none" viewBox="0 0 24 24" id="twitter" xmlns="http://www.w3.org/2000/svg">
  <path fill="currentColor" fill-rule="evenodd" d="M1.8 1.8C0 3.5 0 6.3 0 12c0 5.7 0 8.5 1.8 10.2C3.5 24 6.3 24 12 24c5.7 0 8.5 0 10.2-1.8C24 20.5 24 17.7 24 12c0-5.7 0-8.5-1.8-10.2C20.5 0 17.7 0 12 0 6.3 0 3.5 0 1.8 1.8ZM18.2 6H16l-3.5 3.8-3-3.8H5l5.3 6.6-5 5.4h2.1l3.9-4.2 3.4 4.2H19l-5.5-7 4.7-5Zm-1.7 10.8h-1.2L7.5 7.2h1.3l7.7 9.6Z" clip-rule="evenodd"/>
</symbol></svg>