<svg width="48" height="48" viewBox="0 0 48 48" fill="none" xmlns="http://www.w3.org/2000/svg">
<path d="M29.8515 16.8788C29.7159 16.5705 29.4958 16.306 29.216 16.1152C28.9362 15.9243 28.6079 15.8148 28.2684 15.799H19.9342L22.2452 7.26862C22.3188 7.00169 22.3292 6.72156 22.2756 6.45002C22.2219 6.17847 22.1057 5.92282 21.9359 5.70292C21.7664 5.48514 21.5487 5.30864 21.2995 5.18698C21.0503 5.06532 20.7762 5.00172 20.4983 5.00106H7.76055C7.34973 4.98714 6.94625 5.11119 6.61582 5.35302C6.2854 5.59484 6.0475 5.94018 5.94086 6.3328L1.06411 24.3294C0.990503 24.5963 0.980124 24.8764 1.03378 25.148C1.08743 25.4195 1.20366 25.6752 1.37345 25.8951C1.54484 26.1153 1.76546 26.2932 2.01802 26.415C2.27059 26.5368 2.54823 26.599 2.8292 26.5969H9.87138L6.57775 38.7266C6.46984 39.1177 6.49863 39.5335 6.65946 39.9064C6.82029 40.2793 7.10373 40.5876 7.46386 40.7813C7.82399 40.975 8.23971 41.0428 8.64365 40.9736C9.04758 40.9045 9.41608 40.7024 9.68941 40.4003L29.524 18.8044C29.7602 18.5487 29.9167 18.2309 29.9748 17.8894C30.0329 17.5478 29.9901 17.1969 29.8515 16.8788ZM12.0368 32.4998L13.9839 25.3012C14.0575 25.0342 14.0679 24.7541 14.0142 24.4826C13.9605 24.211 13.8443 23.9554 13.6745 23.7355C13.505 23.5177 13.2873 23.3412 13.0381 23.2195C12.7889 23.0979 12.5149 23.0343 12.237 23.0336H5.24938L9.14351 8.60037H18.1146L15.8036 17.1307C15.7294 17.4026 15.7207 17.6879 15.7783 17.9636C15.8358 18.2394 15.958 18.4979 16.135 18.7185C16.312 18.939 16.5389 19.1155 16.7973 19.2335C17.0558 19.3516 17.3387 19.408 17.6232 19.3983H24.1195L12.0368 32.4998Z" fill="url(#paint0_linear_198_1314)"/>
<path d="M31.8689 41.0903C29.8863 41.0903 28.7939 40.3316 28.8445 39.2089H30.7866C30.7765 39.664 31.2316 39.8663 32.0004 39.8663C32.5163 39.8663 32.7894 39.7146 32.7995 39.4011C32.8096 39.0875 32.5264 39.0369 31.4744 38.8649C30.2404 38.6626 29.3401 38.3086 29.3806 37.2667C29.421 36.0732 30.5236 35.4258 32.142 35.4258C34.0335 35.4258 35.0855 36.1338 34.9945 37.2162H33.1333C33.1232 36.8419 32.7186 36.6396 32.0914 36.6396C31.6666 36.6396 31.3733 36.8014 31.3631 37.0948C31.353 37.4185 31.6464 37.4589 32.577 37.6005C33.6694 37.7725 34.8529 37.9647 34.8023 39.2392C34.7618 40.3923 33.8515 41.0903 31.8689 41.0903Z" fill="#67C3DB"/>
<path d="M17.8199 40.9891L18.9528 35.5269H20.814L20.7736 36.2552H20.8343C21.2187 35.7292 21.9065 35.4258 22.6247 35.4258C23.5553 35.4258 24.2734 35.8607 24.4049 36.5688H24.4859C24.9208 35.8405 25.7705 35.4258 26.6606 35.4258C28.2082 35.4258 28.9365 36.4575 28.5926 38.1164L27.9958 40.9891H26.0436L26.5999 38.3288C26.7719 37.4387 26.5392 36.9026 25.8211 36.9026C25.1332 36.9026 24.6477 37.3072 24.496 38.0557L23.8789 40.9891H21.9267L22.483 38.339C22.6752 37.4387 22.4325 36.9026 21.7143 36.9026C20.9961 36.9026 20.5308 37.3477 20.369 38.1265L19.7823 40.9891H17.8199Z" fill="#67C3DB"/>
<defs>
<linearGradient id="paint0_linear_198_1314" x1="24.2604" y1="8.75" x2="2.8169" y2="34.0211" gradientUnits="userSpaceOnUse">
<stop stop-color="#70D6F1"/>
<stop offset="0.841346" stop-color="#2E515A"/>
</linearGradient>
</defs>
</svg>
