<svg width="140" height="39" viewBox="0 0 140 39" fill="none" xmlns="http://www.w3.org/2000/svg">
<path d="M33.5424 8.58989L20.5532 0.721858C18.9642 -0.240619 16.9689 -0.240619 15.3799 0.721858L2.39066 8.58989C0.906182 9.48917 0 11.0941 0 12.8242V26.1852C0 27.9166 0.907117 29.5225 2.39284 30.4211L15.382 38.2795C16.9698 39.2402 18.9629 39.2402 20.5507 38.2795L33.5399 30.4211C35.0256 29.5221 35.9327 27.9163 35.9327 26.1852V12.8242C35.9327 11.0938 35.0265 9.48886 33.5421 8.58989H33.5424Z" fill="#F7F0DC"/>
<path d="M31.9949 12.1121L19.5834 4.59377C18.5901 3.99218 17.3433 3.99218 16.35 4.59377L3.93848 12.1121V25.1543C3.93848 26.2363 4.50527 27.24 5.43385 27.8016L17.9664 35.3837L30.4989 27.8016C31.4275 27.2397 31.9946 26.2363 31.9946 25.1543V12.1121H31.9949Z" fill="#C4A141"/>
<path d="M17.967 20.5983L13.801 18.0779V18.0776L8.10168 14.6295V14.6298L3.93848 12.1113V18.1755L8.10168 20.694V29.4146L13.801 32.8627V24.1421L17.967 26.6625V20.5983Z" fill="#DBBB64"/>
<path d="M31.9948 25.1531C31.9948 26.2351 31.4277 27.2388 30.4992 27.8004L27.8288 29.4159L22.1295 32.864L17.9663 35.3822V29.318L22.1295 26.7995V18.079L27.8288 14.6309V23.3514L31.9948 20.831V25.1524V25.1531Z" fill="#E0C57C"/>
<path d="M31.9949 12.1121L27.7614 9.54772L18.9317 14.8963L17.5495 14.059L22.5657 11.0204L19.8021 9.34606L14.7899 12.3874L13.3646 11.5241L22.2002 6.1789L19.5834 4.59377C18.5904 3.99218 17.3433 3.99218 16.35 4.59377L9.13696 8.96317L3.93848 12.1121L17.9667 20.5987L23.1599 17.4573L31.9952 12.1121H31.9949Z" fill="#E0C57C"/>
<path d="M51.0911 13.4889H46.0581V10.0176H60.6121V13.4889H55.4702V25.8342H51.0908V13.4889H51.0911Z" fill="black"/>
<path d="M65.6006 10.0176H79.2829V13.4676H70.0015V16.2661H78.1935V19.4772H70.0015V22.3845H79.3482V25.8342H65.6006V10.0176Z" fill="black"/>
<path d="M84.6409 10.0176H89.9573L97.0164 20.1498H97.1688L97.0378 15.5285V10.0176H101.395V25.8342H96.1662L89.1289 15.8324H88.9329L89.0854 20.2799V25.8342H84.6406V10.0176H84.6409Z" fill="black"/>
<path d="M107.342 10.0176H121.025V13.4676H111.743V16.2661H119.935V19.4772H111.743V22.3845H121.09V25.8342H107.342V10.0176Z" fill="black"/>
<path d="M130.479 13.4889H125.446V10.0176H140V13.4889H134.858V25.8342H130.479V13.4889Z" fill="black"/>
<path d="M51.1401 33.9408V30.7715H51.6936V33.9408H51.1401Z" fill="black"/>
<path d="M60.3092 33.9408V32.0602H60.2955L60.1263 32.4657L59.8929 32.9755L59.646 33.4947H59.2023L59.0194 33.1075L58.7177 32.4427L58.5531 32.0555L58.5394 32.0691V33.9408H57.9863V30.7715H58.503L58.919 31.6779C59.0073 31.869 59.0919 32.0586 59.1728 32.247C59.2537 32.4353 59.3352 32.6252 59.4176 32.8163H59.436L59.692 32.2107L59.9253 31.6779L60.3325 30.7715H60.8629V33.9408H60.3095H60.3092Z" fill="black"/>
<path d="M69.0526 33.9408L68.8009 33.2395H67.621L67.365 33.9408H66.7842L67.9868 30.7715H68.4351L69.6374 33.9408H69.0523H69.0526ZM68.4261 32.1283L68.2158 31.4772H68.2018L67.9958 32.1147L67.7815 32.7702H68.6364L68.4261 32.1283Z" fill="black"/>
<path d="M76.6835 33.4663C76.7749 33.4663 76.8596 33.4487 76.9373 33.4137C77.0151 33.379 77.082 33.3316 77.1383 33.2727C77.1949 33.2136 77.2394 33.1445 77.2733 33.0655C77.3066 32.9865 77.3237 32.9044 77.3237 32.8195V32.6829H76.6605V32.2096H77.8768V32.8335C77.8768 32.9973 77.846 33.1485 77.785 33.2867C77.724 33.4248 77.6407 33.5447 77.5352 33.6463C77.4301 33.7479 77.3041 33.8269 77.1573 33.8833C77.0107 33.9397 76.8533 33.9673 76.6853 33.9673C76.4838 33.9673 76.3086 33.9363 76.1605 33.874C76.0122 33.8117 75.8896 33.7266 75.7916 33.6191C75.6936 33.5116 75.6211 33.3836 75.5739 33.2365C75.5266 33.0893 75.5029 32.9307 75.5029 32.7607V31.9503C75.5029 31.7923 75.5263 31.6405 75.5739 31.4949C75.6208 31.349 75.6927 31.2208 75.7885 31.1102C75.8849 30.9996 76.0056 30.9113 76.1522 30.8459C76.2987 30.7806 76.4707 30.748 76.6689 30.748C76.9491 30.748 77.1856 30.8159 77.3775 30.9506C77.5694 31.086 77.7054 31.2641 77.7847 31.4859L77.2633 31.6907C77.2235 31.5665 77.1529 31.4652 77.0506 31.3877C76.9482 31.3103 76.8197 31.2716 76.6642 31.2716C76.5575 31.2716 76.466 31.2898 76.3898 31.3264C76.3136 31.3626 76.2511 31.4119 76.2022 31.4745C76.1534 31.5367 76.117 31.6074 76.0921 31.6864C76.0679 31.7654 76.0557 31.8459 76.0557 31.9277V32.7839C76.0557 32.8688 76.0688 32.9524 76.0946 33.0345C76.1204 33.1163 76.1593 33.1891 76.2113 33.2529C76.2629 33.3167 76.3279 33.3685 76.4057 33.4078C76.4831 33.4471 76.5755 33.467 76.6822 33.467L76.6835 33.4663Z" fill="black"/>
<path d="M85.1163 30.748C85.2992 30.748 85.4638 30.7787 85.6103 30.8391C85.7565 30.8998 85.8815 30.9835 85.9851 31.0897C86.0887 31.196 86.168 31.3227 86.2231 31.4701C86.2779 31.6176 86.3055 31.7774 86.3055 31.9506V32.761C86.3055 32.9465 86.2772 33.1135 86.2209 33.2619C86.1643 33.4106 86.0847 33.5376 85.9811 33.6423C85.8775 33.747 85.7524 33.8275 85.6062 33.8836C85.4597 33.94 85.2967 33.9676 85.1169 33.9676C84.9187 33.9676 84.7452 33.9353 84.5955 33.87C84.4459 33.8046 84.3227 33.7166 84.2253 33.6057C84.1277 33.4948 84.0546 33.3666 84.0057 33.221C83.9572 33.0751 83.9326 32.9218 83.9326 32.761V31.9506C83.9326 31.7926 83.9572 31.6408 84.0057 31.4952C84.0546 31.3493 84.1277 31.2211 84.2253 31.1105C84.3227 30.9999 84.4462 30.9116 84.5955 30.8462C84.7448 30.7809 84.9187 30.7484 85.1169 30.7484L85.1163 30.748ZM85.1138 31.2672C85.0068 31.2672 84.9141 31.2855 84.8363 31.3221C84.7582 31.3583 84.6932 31.4076 84.6409 31.4701C84.589 31.5324 84.5501 31.603 84.524 31.682C84.4982 31.761 84.4851 31.8416 84.4851 31.9233V32.7749C84.4851 32.8629 84.4982 32.9472 84.524 33.0274C84.5501 33.1079 84.589 33.1798 84.6409 33.2436C84.6932 33.3074 84.7582 33.3582 84.8363 33.396C84.9141 33.4341 85.0068 33.453 85.1138 33.453C85.2118 33.453 85.2998 33.4357 85.3779 33.4007C85.456 33.366 85.5216 33.318 85.5754 33.2572C85.6289 33.1965 85.6703 33.1253 85.6992 33.0435C85.7282 32.9614 85.7428 32.8719 85.7428 32.7749V31.9233C85.7428 31.8323 85.7282 31.7474 85.6992 31.6684C85.67 31.5894 85.6286 31.5203 85.5754 31.4612C85.5216 31.402 85.456 31.3549 85.3779 31.3199C85.2998 31.2852 85.2121 31.2675 85.1138 31.2675V31.2672Z" fill="black"/>
<path d="M101.574 33.9408V32.0602H101.56L101.391 32.4657L101.158 32.9755L100.911 33.4947H100.467L100.284 33.1075L99.9823 32.4427L99.8178 32.0555L99.8041 32.0691V33.9408H99.251V30.7715H99.7677L100.184 31.6779C100.272 31.869 100.357 32.0586 100.437 32.247C100.518 32.4353 100.6 32.6252 100.682 32.8163H100.701L100.956 32.2107L101.19 31.6779L101.597 30.7715H102.127V33.9408H101.574Z" fill="black"/>
<path d="M110.595 33.2872C110.535 33.4284 110.453 33.5489 110.348 33.6493C110.243 33.7494 110.118 33.8268 109.972 33.8813C109.826 33.9362 109.667 33.9634 109.497 33.9634C109.318 33.9634 109.155 33.9337 109.009 33.8748C108.863 33.8157 108.738 33.7336 108.635 33.6289C108.531 33.5242 108.452 33.4006 108.397 33.2578C108.342 33.1153 108.315 32.9604 108.315 32.7934V30.7715H108.868V32.7525C108.868 32.8498 108.883 32.9409 108.912 33.0257C108.941 33.1106 108.982 33.1846 109.037 33.2466C109.091 33.3089 109.158 33.3581 109.237 33.395C109.316 33.4312 109.406 33.4495 109.506 33.4495C109.694 33.4495 109.846 33.3919 109.959 33.2763C110.073 33.1611 110.13 32.9941 110.13 32.7757V30.7718H110.684V32.8166C110.684 32.9898 110.654 33.1465 110.595 33.2878V33.2872Z" fill="black"/>
<path d="M118.909 33.9408L117.926 32.4653L117.482 31.7414L117.469 31.746V33.9408H116.916V30.7715H117.428L118.319 32.1196L118.859 32.9759L118.868 32.9669V30.7718H119.421V33.9411H118.909L118.909 33.9408Z" fill="black"/>
<path d="M126.862 30.7695C127.1 30.7695 127.315 30.8151 127.507 30.9061C127.699 30.9972 127.845 31.1475 127.946 31.3569C128.004 31.4724 128.039 31.6087 128.051 31.7667C128.063 31.9247 128.07 32.1022 128.07 32.2995C128.07 32.5213 128.063 32.714 128.051 32.8779C128.039 33.0417 128.007 33.1858 127.955 33.3103C127.903 33.4287 127.837 33.5281 127.756 33.6086C127.675 33.6892 127.584 33.7536 127.484 33.8019C127.383 33.8506 127.274 33.8859 127.155 33.907C127.036 33.928 126.912 33.9389 126.784 33.9389H125.705V30.7695H126.862ZM126.259 33.438H126.803C126.937 33.438 127.05 33.4191 127.141 33.381C127.233 33.3432 127.306 33.2899 127.361 33.2214C127.416 33.153 127.456 33.0706 127.48 32.9733C127.504 32.876 127.517 32.7682 127.517 32.6499V32.0579C127.517 31.7757 127.454 31.574 127.329 31.4523C127.204 31.3309 127.025 31.2701 126.794 31.2701H126.258V33.4376L126.259 33.438Z" fill="black"/>
<path d="M134.251 33.9408V30.7715H134.804V33.9408H134.251Z" fill="black"/>
</svg>
