<svg aria-hidden="true" xmlns="http://www.w3.org/2000/svg" xmlns:xlink="http://www.w3.org/1999/xlink"><symbol viewBox="0 0 17 18" fill="none" id="arrow-left" xmlns="http://www.w3.org/2000/svg">
<path d="M8.79538 1.19253C8.98292 1.38007 9.08828 1.63442 9.08828 1.89964C9.08828 2.16485 8.98292 2.41921 8.79538 2.60674L3.42844 7.97368L15.1593 7.96661C15.4256 7.96661 15.681 8.0724 15.8693 8.2607C16.0576 8.44901 16.1634 8.7044 16.1634 8.9707C16.1634 9.237 16.0576 9.4924 15.8693 9.6807C15.681 9.86901 15.4256 9.97479 15.1593 9.97479L3.42844 9.96772L8.79538 15.3347C8.98292 15.5222 9.08828 15.7766 9.08828 16.0418C9.08828 16.307 8.98292 16.5613 8.79538 16.7489C8.60785 16.9364 8.35349 17.0418 8.08828 17.0418C7.82306 17.0418 7.56871 16.9364 7.38117 16.7489L0.310104 9.67781C0.218819 9.58429 0.14675 9.47378 0.0979726 9.35254C-0.00305508 9.10801 -0.00305508 8.8334 0.0979726 8.58886C0.14675 8.46762 0.218819 8.35712 0.310104 8.2636L7.38117 1.19253C7.56871 1.00499 7.82306 0.899635 8.08828 0.899635C8.35349 0.899635 8.60785 1.00499 8.79538 1.19253Z" fill="currentColor"/>
</symbol><symbol viewBox="0 0 18 18" fill="none" id="arrow-right" xmlns="http://www.w3.org/2000/svg">
<path d="M8.32229 1.19253C8.13475 1.38007 8.0294 1.63442 8.0294 1.89964C8.0294 2.16485 8.13475 2.41921 8.32229 2.60674L13.6892 7.97368L1.95833 7.96661C1.69203 7.96661 1.43663 8.0724 1.24833 8.2607C1.06003 8.44901 0.954239 8.7044 0.954239 8.9707C0.954239 9.237 1.06003 9.4924 1.24833 9.6807C1.43663 9.86901 1.69203 9.97479 1.95833 9.97479L13.6892 9.96772L8.32229 15.3347C8.13475 15.5222 8.0294 15.7766 8.0294 16.0418C8.0294 16.307 8.13475 16.5613 8.32229 16.7489C8.50983 16.9364 8.76418 17.0418 9.0294 17.0418C9.29461 17.0418 9.54897 16.9364 9.7365 16.7489L16.8076 9.67781C16.8989 9.58429 16.9709 9.47378 17.0197 9.35254C17.1207 9.10801 17.1207 8.8334 17.0197 8.58886C16.9709 8.46762 16.8989 8.35712 16.8076 8.2636L9.7365 1.19253C9.54897 1.00499 9.29461 0.899635 9.0294 0.899635C8.76418 0.899635 8.50983 1.00499 8.32229 1.19253Z" fill="currentColor"/>
</symbol><symbol viewBox="0 0 11 13" fill="none" id="back" xmlns="http://www.w3.org/2000/svg">
<path d="M9.66328 3.39124L5.987 1.14907C5.53727 0.874789 4.97255 0.874789 4.52282 1.14907L0.846541 3.39124C0.426395 3.64752 0.169922 4.10488 0.169922 4.59792V8.40544C0.169922 8.89882 0.426659 9.35646 0.847158 9.61255L4.52344 11.852C4.97282 12.1257 5.53691 12.1257 5.98629 11.852L9.66257 9.61255C10.0831 9.35637 10.3398 8.89873 10.3398 8.40544V4.59792C10.3398 4.10479 10.0833 3.64743 9.66319 3.39124H9.66328Z" fill="currentColor"/>
</symbol><symbol viewBox="0 0 24 24" fill="none" id="facebook" xmlns="http://www.w3.org/2000/svg">
<g clip-path="url(#dclip0_356_2506)">
<path d="M12 0C18.6274 0 24 5.37264 24 12C24 18.1354 19.396 23.1945 13.4541 23.9121V15.668H16.7002L17.374 12.001V12H13.4541V10.7031C13.4541 10.1521 13.5191 9.69855 13.6523 9.33008C13.6797 9.25448 13.7097 9.18269 13.7432 9.11426C13.7685 9.06246 13.7933 9.01165 13.8223 8.96387C14.2241 8.30109 14.976 8.02054 16.1816 8.02051C16.7927 8.02051 17.2852 8.03567 17.5684 8.06543V4.74023C17.0317 4.59147 15.7202 4.44242 14.96 4.44238C12.4199 4.44238 10.7483 5.20285 9.86328 6.79785C9.53743 7.38478 9.31854 8.08433 9.20215 8.90137C9.19611 8.94376 9.18908 8.98628 9.18359 9.0293C9.12851 9.46119 9.10059 9.92491 9.10059 10.4209V12H6.62695V15.668H9.10059V23.6455C3.87434 22.3482 0 17.6272 0 12C5.63753e-08 5.37264 5.37264 5.63736e-08 12 0Z" fill="currentColor"/>
</g>
<defs>
<clipPath id="dclip0_356_2506">
<rect width="24" height="24" fill="currentColor"/>
</clipPath>
</defs>
</symbol><symbol viewBox="0 0 24 24" fill="none" id="github" xmlns="http://www.w3.org/2000/svg">
<path d="M12 2.24609C9.6255 2.24619 7.32849 3.09121 5.51999 4.62994C3.71149 6.16867 2.50953 8.30071 2.12916 10.6446C1.74879 12.9884 2.21485 15.3912 3.44393 17.4228C4.67301 19.4545 6.58491 20.9826 8.83755 21.7336C9.33755 21.8211 9.52505 21.5211 9.52505 21.2586C9.52505 21.0211 9.51254 20.2336 9.51254 19.3961C7.00003 19.8586 6.35003 18.7836 6.15003 18.2211C5.9281 17.674 5.5763 17.1892 5.12503 16.8086C4.77503 16.6211 4.27503 16.1586 5.11252 16.1461C5.4323 16.1808 5.73901 16.2921 6.00666 16.4705C6.2743 16.6489 6.49499 16.8892 6.65003 17.1711C6.7868 17.4168 6.97071 17.6331 7.19122 17.8076C7.41173 17.9821 7.6645 18.1114 7.93506 18.188C8.20562 18.2646 8.48864 18.2871 8.76791 18.2542C9.04717 18.2213 9.3172 18.1336 9.56251 17.9961C9.6058 17.4877 9.83237 17.0124 10.2 16.6586C7.97503 16.4086 5.65003 15.5461 5.65003 11.7211C5.63597 10.7273 6.00271 9.7657 6.67503 9.03362C6.36931 8.16984 6.40508 7.22191 6.77503 6.38362C6.77503 6.38362 7.6125 6.12111 9.52503 7.40862C11.1613 6.9586 12.8887 6.9586 14.525 7.40862C16.4375 6.10862 17.275 6.38362 17.275 6.38362C17.645 7.2219 17.6808 8.16985 17.375 9.03362C18.0494 9.76445 18.4164 10.7269 18.4 11.7211C18.4 15.5586 16.0625 16.4086 13.8375 16.6586C14.0762 16.9005 14.26 17.1909 14.3764 17.5101C14.4929 17.8293 14.5393 18.1699 14.5125 18.5086C14.5125 19.8461 14.5 20.9211 14.5 21.2586C14.5 21.5211 14.6875 21.8336 15.1875 21.7336C17.4362 20.9765 19.3426 19.4449 20.5664 17.4121C21.7903 15.3794 22.2519 12.9779 21.8689 10.6363C21.4859 8.29474 20.2832 6.16547 18.4755 4.6286C16.6678 3.09174 14.3727 2.24733 12 2.24609Z" fill="currentColor"/>
</symbol><symbol viewBox="0 0 24 24" fill="none" id="linkedin" xmlns="http://www.w3.org/2000/svg">
<path d="M12 0C17.6569 0 20.4849 0.000452518 22.2422 1.75781C23.9996 3.51517 24 6.34317 24 12C24 17.6569 23.9996 20.4849 22.2422 22.2422C20.4849 23.9996 17.6569 24 12 24C6.34317 24 3.51517 23.9996 1.75781 22.2422C0.000452518 20.4849 0 17.6569 0 12C0 6.34315 0.000452518 3.51517 1.75781 1.75781C3.51517 0.000452518 6.34315 0 12 0ZM5.08984 9.74023V18.7402H8.08984V9.74023H5.08984ZM15.46 9.5C14.9146 9.47987 14.374 9.60972 13.8965 9.87402C13.4192 10.1383 13.0225 10.5273 12.75 11V9.73047H9.75V18.7305H12.75V13.5449C12.7581 13.3601 12.791 13.1761 12.8496 13C12.9641 12.6828 13.174 12.4087 13.4492 12.2139C13.7244 12.0191 14.0525 11.9127 14.3896 11.9102C15.4796 11.9102 15.9101 12.7003 15.9102 13.9102V18.7402H18.9102V13.5605C18.9102 10.7905 17.46 9.5 15.46 9.5ZM6.58984 5.36035C6.17626 5.36041 5.7798 5.52497 5.4873 5.81738C5.19484 6.10992 5.03027 6.50723 5.03027 6.9209C5.03047 7.33436 5.19493 7.73106 5.4873 8.02344C5.77978 8.31577 6.17631 8.48041 6.58984 8.48047C6.8095 8.50537 7.0325 8.484 7.24316 8.41699C7.45365 8.35002 7.6477 8.23886 7.8125 8.0918C7.97735 7.94459 8.10985 7.76322 8.2002 7.56152C8.2903 7.36008 8.33681 7.14157 8.33691 6.9209C8.33691 6.70004 8.29035 6.48092 8.2002 6.2793C8.10988 6.07756 7.97735 5.89627 7.8125 5.74902C7.64776 5.60199 7.45356 5.49181 7.24316 5.4248C7.03247 5.35778 6.80954 5.33544 6.58984 5.36035Z" fill="currentColor"/>
</symbol><symbol viewBox="0 0 24 24" fill="none" id="x" xmlns="http://www.w3.org/2000/svg">
<g clip-path="url(#gclip0_356_2505)">
<mask id="gmask0_356_2505" maskUnits="userSpaceOnUse" x="0" y="0" width="24" height="24">
<path d="M24 0H0V24H24V0Z" fill="currentColor"/>
</mask>
<g mask="url(#gmask0_356_2505)">
<path fill-rule="evenodd" clip-rule="evenodd" d="M1.75736 1.75736C0 3.51472 0 6.34315 0 12C0 17.6569 0 20.4853 1.75736 22.2426C3.51472 24 6.34315 24 12 24C17.6569 24 20.4853 24 22.2426 22.2426C24 20.4853 24 17.6569 24 12C24 6.34315 24 3.51472 22.2426 1.75736C20.4853 0 17.6569 0 12 0C6.34315 0 3.51472 0 1.75736 1.75736ZM18.1727 6H16.026L12.4879 9.8345L9.42953 6H5L10.2925 12.5633L5.27636 18H7.42427L11.2963 13.8054L14.6798 18H19L13.4829 11.0834L18.1727 6ZM16.4622 16.7816H15.2724L7.50688 7.15475H8.78349L16.4622 16.7816Z" fill="currentColor"/>
</g>
</g>
<defs>
<clipPath id="gclip0_356_2505">
<rect width="24" height="24" fill="currentColor"/>
</clipPath>
</defs>
</symbol></svg>