<svg width="48" height="48" viewBox="0 0 48 48" fill="none" xmlns="http://www.w3.org/2000/svg">
<g clip-path="url(#clip0_198_1301)">
<path d="M21.8363 26.2179L42.595 13.6037L42.5951 34.5116C42.5951 35.1888 42.2187 35.8224 41.5892 36.2049L21.8363 48.2079L21.8363 26.2179Z" fill="url(#paint0_linear_198_1301)"/>
<path d="M1.07467 34.4918C1.07467 35.169 1.45103 35.8026 2.08051 36.1851L21.8334 48.1881L21.8335 26.1981L1.07471 13.5839L1.07467 34.4918Z" fill="url(#paint1_linear_198_1301)"/>
<path d="M20.6985 1.67894C21.3957 1.25546 22.2707 1.25546 22.9678 1.67894L42.5955 13.6016L21.8332 26.2134L1.0708 13.6016L20.6985 1.67894Z" fill="url(#paint2_linear_198_1301)"/>
<path d="M37.1161 34.0358L46.9496 28.0604L46.9496 37.9645C46.9496 38.2853 46.7713 38.5855 46.4731 38.7667L37.1161 44.4525L37.1161 34.0358Z" fill="url(#paint3_linear_198_1301)"/>
<path d="M27.2812 37.9538C27.2812 38.2746 27.4595 38.5748 27.7577 38.756L37.1147 44.4418L37.1147 34.0251L27.2813 28.0497L27.2812 37.9538Z" fill="url(#paint4_linear_198_1301)"/>
<path d="M36.577 22.4122C36.9072 22.2116 37.3217 22.2116 37.6519 22.4122L46.9496 28.0599L37.1145 34.0342L27.2793 28.0599L36.577 22.4122Z" fill="url(#paint5_linear_198_1301)"/>
</g>
<defs>
<linearGradient id="paint0_linear_198_1301" x1="12.3985" y1="38.532" x2="49.5819" y2="43.0408" gradientUnits="userSpaceOnUse">
<stop stop-color="#70D6F1"/>
<stop offset="0.841346" stop-color="#2E515A"/>
</linearGradient>
<linearGradient id="paint1_linear_198_1301" x1="0.198609" y1="14.5124" x2="-2.04676" y2="47.7838" gradientUnits="userSpaceOnUse">
<stop stop-color="#70D6F1"/>
<stop offset="0.841346" stop-color="#2E515A"/>
</linearGradient>
<linearGradient id="paint2_linear_198_1301" x1="9.3597" y1="25.8545" x2="21.7691" y2="-4.47945" gradientUnits="userSpaceOnUse">
<stop stop-color="#70D6F1"/>
<stop offset="0.841346" stop-color="#2E515A"/>
</linearGradient>
<linearGradient id="paint3_linear_198_1301" x1="32.6454" y1="39.869" x2="50.2592" y2="42.0048" gradientUnits="userSpaceOnUse">
<stop stop-color="#70D6F1"/>
<stop offset="0.841346" stop-color="#2E515A"/>
</linearGradient>
<linearGradient id="paint4_linear_198_1301" x1="26.8662" y1="28.4895" x2="25.8026" y2="44.2503" gradientUnits="userSpaceOnUse">
<stop stop-color="#70D6F1"/>
<stop offset="0.841346" stop-color="#2E515A"/>
</linearGradient>
<linearGradient id="paint5_linear_198_1301" x1="31.2058" y1="33.8642" x2="37.0841" y2="19.4949" gradientUnits="userSpaceOnUse">
<stop stop-color="#70D6F1"/>
<stop offset="0.841346" stop-color="#2E515A"/>
</linearGradient>
<clipPath id="clip0_198_1301">
<rect width="48" height="48" fill="white"/>
</clipPath>
</defs>
</svg>
