<svg width="48" height="48" viewBox="0 0 48 48" fill="none" xmlns="http://www.w3.org/2000/svg">
<path d="M32 40V43H11V40H32ZM36 36V11C36 8.79086 34.2091 7 32 7H11C8.79086 7 7 8.79086 7 11V36C7 38.2091 8.79086 40 11 40V43L10.6396 42.9912C6.94111 42.8037 4 39.7451 4 36V11C4 7.13401 7.13401 4 11 4H32C35.866 4 39 7.13401 39 11V36C39 39.866 35.866 43 32 43V40C34.2091 40 36 38.2091 36 36Z" fill="#2C4951"/>
<path d="M3 10H8V37H3V10Z" fill="#1B2628"/>
<path d="M35 10H40V37H35V10Z" fill="#1B2628"/>
<path d="M0 14.5C0 13.6716 0.671573 13 1.5 13H41V16H1.5C0.671574 16 0 15.3284 0 14.5Z" fill="url(#paint0_linear_198_1241)"/>
<path d="M43 11L41 13V16L43 14L43 11Z" fill="#6ED2EC"/>
<path d="M43 17L41 19V22L43 20L43 17Z" fill="#6ED2EC"/>
<path d="M43 23L41 25V28L43 26L43 23Z" fill="#6ED2EC"/>
<path d="M43 29L41 31V34L43 32L43 29Z" fill="#6ED2EC"/>
<path d="M43 11H46.5C47.3284 11 48 11.6716 48 12.5C48 13.3284 47.3284 14 46.5 14H43V11Z" fill="url(#paint1_linear_198_1241)"/>
<path d="M43 11H46.5C47.3284 11 48 11.6716 48 12.5C48 13.3284 47.3284 14 46.5 14H43V11Z" fill="#6ED2EC"/>
<path d="M0 20.5C0 19.6716 0.671573 19 1.5 19H41V22H1.5C0.671574 22 0 21.3284 0 20.5Z" fill="url(#paint2_linear_198_1241)"/>
<path d="M43 17H46.5C47.3284 17 48 17.6716 48 18.5C48 19.3284 47.3284 20 46.5 20H43V17Z" fill="url(#paint3_linear_198_1241)"/>
<path d="M43 17H46.5C47.3284 17 48 17.6716 48 18.5C48 19.3284 47.3284 20 46.5 20H43V17Z" fill="#6ED2EC"/>
<path d="M0 26.5C0 25.6716 0.671573 25 1.5 25H41V28H1.5C0.671574 28 0 27.3284 0 26.5Z" fill="url(#paint4_linear_198_1241)"/>
<path d="M43 23H46.5C47.3284 23 48 23.6716 48 24.5C48 25.3284 47.3284 26 46.5 26H43V23Z" fill="url(#paint5_linear_198_1241)"/>
<path d="M43 23H46.5C47.3284 23 48 23.6716 48 24.5C48 25.3284 47.3284 26 46.5 26H43V23Z" fill="#6ED2EC"/>
<path d="M0 32.5C0 31.6716 0.671573 31 1.5 31H41V34H1.5C0.671574 34 0 33.3284 0 32.5Z" fill="url(#paint6_linear_198_1241)"/>
<path d="M43 29H46.5C47.3284 29 48 29.6716 48 30.5C48 31.3284 47.3284 32 46.5 32H43V29Z" fill="url(#paint7_linear_198_1241)"/>
<path d="M43 29H46.5C47.3284 29 48 29.6716 48 30.5C48 31.3284 47.3284 32 46.5 32H43V29Z" fill="#6ED2EC"/>
<defs>
<linearGradient id="paint0_linear_198_1241" x1="0" y1="14.5" x2="41" y2="14.5" gradientUnits="userSpaceOnUse">
<stop stop-color="#2E515A"/>
<stop offset="1" stop-color="#70D6F1"/>
</linearGradient>
<linearGradient id="paint1_linear_198_1241" x1="43" y1="12.5" x2="48" y2="12.5" gradientUnits="userSpaceOnUse">
<stop stop-color="#2E515A"/>
<stop offset="1" stop-color="#70D6F1"/>
</linearGradient>
<linearGradient id="paint2_linear_198_1241" x1="0" y1="20.5" x2="41" y2="20.5" gradientUnits="userSpaceOnUse">
<stop stop-color="#2E515A"/>
<stop offset="1" stop-color="#70D6F1"/>
</linearGradient>
<linearGradient id="paint3_linear_198_1241" x1="43" y1="18.5" x2="48" y2="18.5" gradientUnits="userSpaceOnUse">
<stop stop-color="#2E515A"/>
<stop offset="1" stop-color="#70D6F1"/>
</linearGradient>
<linearGradient id="paint4_linear_198_1241" x1="0" y1="26.5" x2="41" y2="26.5" gradientUnits="userSpaceOnUse">
<stop stop-color="#2E515A"/>
<stop offset="1" stop-color="#70D6F1"/>
</linearGradient>
<linearGradient id="paint5_linear_198_1241" x1="43" y1="24.5" x2="48" y2="24.5" gradientUnits="userSpaceOnUse">
<stop stop-color="#2E515A"/>
<stop offset="1" stop-color="#70D6F1"/>
</linearGradient>
<linearGradient id="paint6_linear_198_1241" x1="0" y1="32.5" x2="41" y2="32.5" gradientUnits="userSpaceOnUse">
<stop stop-color="#2E515A"/>
<stop offset="1" stop-color="#70D6F1"/>
</linearGradient>
<linearGradient id="paint7_linear_198_1241" x1="43" y1="30.5" x2="48" y2="30.5" gradientUnits="userSpaceOnUse">
<stop stop-color="#2E515A"/>
<stop offset="1" stop-color="#70D6F1"/>
</linearGradient>
</defs>
</svg>
