<svg width="48" height="48" viewBox="0 0 48 48" fill="none" xmlns="http://www.w3.org/2000/svg">
<path d="M32.769 33.625L27.8006 25.045C28.8173 23.1778 29.3469 21.0844 29.3406 18.9583C29.3406 15.5547 27.9886 12.2905 25.5818 9.8838C23.1751 7.47708 19.9109 6.125 16.5073 6.125C13.1037 6.125 9.83948 7.47708 7.43276 9.8838C5.02604 12.2905 3.67396 15.5547 3.67396 18.9583C3.66765 21.0844 4.1973 23.1778 5.21396 25.045L0.245629 33.625C0.0844077 33.9042 -0.000317653 34.2211 8.94942e-07 34.5435C0.000319443 34.8659 0.0856702 35.1826 0.247443 35.4615C0.409215 35.7404 0.641688 35.9717 0.921406 36.1321C1.20112 36.2925 1.51819 36.3763 1.84063 36.375H7.1023L9.77896 40.885C9.8692 41.0345 9.98032 41.1703 10.109 41.2883C10.4488 41.6159 10.9019 41.7998 11.374 41.8017H11.6306C11.9074 41.7638 12.1719 41.6632 12.4038 41.5075C12.6358 41.3518 12.8291 41.1451 12.969 40.9033L16.5073 34.8167L20.0456 40.9583C20.1876 41.1967 20.3818 41.3998 20.6136 41.5522C20.8454 41.7047 21.1088 41.8025 21.384 41.8383H21.6406C22.119 41.8412 22.5795 41.657 22.924 41.325C23.0473 41.2137 23.1524 41.0838 23.2356 40.94L25.9123 36.43H31.174C31.497 36.4313 31.8147 36.3472 32.0948 36.1862C32.3749 36.0252 32.6074 35.7931 32.769 35.5133C32.9403 35.2282 33.0308 34.9018 33.0308 34.5692C33.0308 34.2365 32.9403 33.9101 32.769 33.625ZM11.3556 36.43L9.72396 33.6983C9.5633 33.4273 9.3355 33.2023 9.06254 33.0449C8.78958 32.8876 8.48068 32.8032 8.16563 32.8H4.99396L7.61563 28.2533C9.42096 29.9929 11.6963 31.1657 14.1606 31.6267L11.3556 36.43ZM16.5073 28.125C14.6943 28.125 12.922 27.5874 11.4146 26.5801C9.90712 25.5729 8.7322 24.1413 8.0384 22.4663C7.3446 20.7913 7.16307 18.9482 7.51676 17.17C7.87046 15.3918 8.7435 13.7585 10.0255 12.4765C11.3075 11.1945 12.9408 10.3215 14.719 9.9678C16.4971 9.6141 18.3402 9.79563 20.0152 10.4894C21.6902 11.1832 23.1219 12.3582 24.1291 13.8656C25.1364 15.3731 25.674 17.1453 25.674 18.9583C25.674 21.3895 24.7082 23.7211 22.9891 25.4401C21.27 27.1592 18.9384 28.125 16.5073 28.125ZM24.849 32.8C24.5339 32.8032 24.225 32.8876 23.9521 33.0449C23.6791 33.2023 23.4513 33.4273 23.2906 33.6983L21.659 36.43L18.8723 31.5717C21.328 31.1012 23.5949 29.9296 25.399 28.1983L28.0206 32.745L24.849 32.8Z" fill="url(#paint0_linear_200_1363)"/>
<defs>
<linearGradient id="paint0_linear_200_1363" x1="26.4934" y1="9.84514" x2="5.88255" y2="37.7332" gradientUnits="userSpaceOnUse">
<stop stop-color="#70D6F1"/>
<stop offset="0.841346" stop-color="#2E515A"/>
</linearGradient>
</defs>
</svg>
