<svg width="48" height="48" viewBox="0 0 48 48" fill="none" xmlns="http://www.w3.org/2000/svg">
<path d="M30.7098 21.2941L26.7098 17.2941C26.6166 17.2009 26.5059 17.1269 26.3841 17.0764C26.2623 17.026 26.1317 17 25.9998 17C25.7335 17 25.4781 17.1058 25.2898 17.2941C25.1015 17.4824 24.9958 17.7378 24.9958 18.0041C24.9958 18.2704 25.1015 18.5258 25.2898 18.7141L27.5898 21.0041H15.9998C15.7346 21.0041 15.4803 21.1094 15.2927 21.297C15.1052 21.4845 14.9998 21.7389 14.9998 22.0041C14.9998 22.2693 15.1052 22.5237 15.2927 22.7112C15.4803 22.8987 15.7346 23.0041 15.9998 23.0041H29.9998C30.1973 23.0031 30.39 22.9437 30.5537 22.8334C30.7174 22.723 30.8448 22.5667 30.9198 22.3841C30.9964 22.202 31.0173 22.0013 30.98 21.8073C30.9426 21.6133 30.8486 21.4347 30.7098 21.2941ZM32.0899 25.0041H18.0899C17.8925 25.0051 17.6998 25.0645 17.5361 25.1748C17.3724 25.2851 17.245 25.4415 17.1699 25.6241C17.0934 25.8062 17.0724 26.0069 17.1098 26.2009C17.1472 26.3949 17.2412 26.5735 17.3799 26.7141L21.3799 30.7141C21.4729 30.8078 21.5835 30.8822 21.7054 30.933C21.8272 30.9838 21.9579 31.0099 22.0899 31.0099C22.222 31.0099 22.3527 30.9838 22.4745 30.933C22.5964 30.8822 22.707 30.8078 22.7999 30.7141C22.8937 30.6211 22.9681 30.5105 23.0188 30.3887C23.0696 30.2668 23.0957 30.1361 23.0957 30.0041C23.0957 29.8721 23.0696 29.7414 23.0188 29.6195C22.9681 29.4977 22.8937 29.3871 22.7999 29.2941L20.4999 27.0041H32.0899C32.3552 27.0041 32.6095 26.8987 32.7971 26.7112C32.9846 26.5237 33.0899 26.2693 33.0899 26.0041C33.0899 25.7389 32.9846 25.4845 32.7971 25.297C32.6095 25.1094 32.3552 25.0041 32.0899 25.0041Z" fill="url(#paint0_linear_199_1339)"/>
<path d="M7 12H11V8H7V12ZM15 15C15 15.5523 14.5523 16 14 16H4L3.89746 15.9951C3.39333 15.9438 3 15.5177 3 15V5C3 4.44772 3.44772 4 4 4H14C14.5523 4 15 4.44772 15 5V15Z" fill="url(#paint1_linear_199_1339)"/>
<path d="M7 40H11V36H7V40ZM15 43C15 43.5523 14.5523 44 14 44H4L3.89746 43.9951C3.39333 43.9438 3 43.5177 3 43V33C3 32.4477 3.44772 32 4 32H14C14.5523 32 15 32.4477 15 33V43Z" fill="url(#paint2_linear_199_1339)"/>
<path d="M37 12H41V8H37V12ZM45 15C45 15.5523 44.5523 16 44 16H34L33.8975 15.9951C33.3933 15.9438 33 15.5177 33 15V5C33 4.44772 33.4477 4 34 4H44C44.5523 4 45 4.44772 45 5V15Z" fill="url(#paint3_linear_199_1339)"/>
<path d="M37 40H41V36H37V40ZM45 43C45 43.5523 44.5523 44 44 44H34L33.8975 43.9951C33.3933 43.9438 33 43.5177 33 43V33C33 32.4477 33.4477 32 34 32H44C44.5523 32 45 32.4477 45 33V43Z" fill="url(#paint4_linear_199_1339)"/>
<defs>
<linearGradient id="paint0_linear_199_1339" x1="15" y1="24.0049" x2="33.0899" y2="24.0049" gradientUnits="userSpaceOnUse">
<stop stop-color="#2E515A"/>
<stop offset="1" stop-color="#70D6F1"/>
</linearGradient>
<linearGradient id="paint1_linear_199_1339" x1="12.625" y1="5.25" x2="5.875" y2="15.125" gradientUnits="userSpaceOnUse">
<stop stop-color="#70D6F1"/>
<stop offset="0.841346" stop-color="#2E515A"/>
</linearGradient>
<linearGradient id="paint2_linear_199_1339" x1="12.625" y1="33.25" x2="5.875" y2="43.125" gradientUnits="userSpaceOnUse">
<stop stop-color="#70D6F1"/>
<stop offset="0.841346" stop-color="#2E515A"/>
</linearGradient>
<linearGradient id="paint3_linear_199_1339" x1="42.625" y1="5.25" x2="35.875" y2="15.125" gradientUnits="userSpaceOnUse">
<stop stop-color="#70D6F1"/>
<stop offset="0.841346" stop-color="#2E515A"/>
</linearGradient>
<linearGradient id="paint4_linear_199_1339" x1="42.625" y1="33.25" x2="35.875" y2="43.125" gradientUnits="userSpaceOnUse">
<stop stop-color="#70D6F1"/>
<stop offset="0.841346" stop-color="#2E515A"/>
</linearGradient>
</defs>
</svg>
