<svg width="48" height="48" viewBox="0 0 48 48" fill="none" xmlns="http://www.w3.org/2000/svg">
<g clip-path="url(#clip0_200_1375)">
<path d="M29.3187 6.33594C29.0998 6.33581 28.883 6.37884 28.6807 6.46255C28.4785 6.54626 28.2947 6.66903 28.1399 6.82381C27.9851 6.9786 27.8623 7.16239 27.7786 7.36465C27.6949 7.56692 27.6519 7.7837 27.652 8.0026V9.0638C26.2464 10.8066 24.4698 12.2141 22.4516 13.1838C20.4334 14.1535 18.2244 14.6609 15.9854 14.6693H5.98535C4.65971 14.6707 3.38878 15.198 2.45142 16.1353C1.51405 17.0727 0.986799 18.3436 0.985352 19.6693V23.0026C0.986799 24.3282 1.51405 25.5992 2.45142 26.5365C3.38878 27.4739 4.65971 28.0012 5.98535 28.0026H6.79167L2.78712 37.3466C2.67829 37.6 2.63411 37.8765 2.65854 38.1513C2.68297 38.426 2.77524 38.6903 2.92707 38.9206C3.0789 39.1509 3.28554 39.3398 3.52844 39.4705C3.77133 39.6012 4.04287 39.6695 4.31869 39.6693H10.9854C11.3116 39.6695 11.6307 39.5738 11.903 39.3941C12.1753 39.2144 12.3888 38.9586 12.5169 38.6585L17.0565 28.0659C19.1076 28.2165 21.106 28.786 22.9284 29.7391C24.7508 30.6923 26.3584 32.0089 27.652 33.6077V34.6693C27.652 35.1113 27.8276 35.5352 28.1402 35.8478C28.4527 36.1603 28.8767 36.3359 29.3187 36.3359C29.7607 36.3359 30.1846 36.1603 30.4972 35.8478C30.8098 35.5352 30.9854 35.1113 30.9854 34.6693V8.0026C30.9855 7.7837 30.9425 7.56692 30.8587 7.36465C30.775 7.16238 30.6523 6.9786 30.4975 6.82381C30.3427 6.66902 30.1589 6.54626 29.9566 6.46255C29.7544 6.37883 29.5376 6.33581 29.3187 6.33594ZM5.98535 24.6693C5.54342 24.669 5.11966 24.4933 4.80717 24.1808C4.49467 23.8683 4.31898 23.4445 4.31869 23.0026V19.6693C4.31899 19.2273 4.49468 18.8036 4.80717 18.4911C5.11967 18.1786 5.54342 18.0029 5.98535 18.0026H7.65202V24.6693H5.98535ZM9.88672 36.3359H6.84635L10.4173 28.0026H13.4577L9.88672 36.3359ZM27.652 28.8723C24.3658 26.165 20.2431 24.6797 15.9854 24.6692H10.9854V18.0025H15.9854C20.2432 17.9916 24.3658 16.5061 27.652 13.7986V28.8723Z" fill="url(#paint0_linear_200_1375)"/>
</g>
<defs>
<linearGradient id="paint0_linear_200_1375" x1="28.5" y1="6" x2="3.05638" y2="37.0911" gradientUnits="userSpaceOnUse">
<stop stop-color="#F7E0A1"/>
<stop offset="1" stop-color="#D8B65A"/>
</linearGradient>
<clipPath id="clip0_200_1375">
<rect width="48" height="48" fill="white"/>
</clipPath>
</defs>
</svg>
