<svg width="48" height="48" viewBox="0 0 48 48" fill="none" xmlns="http://www.w3.org/2000/svg">
<g clip-path="url(#clip0_200_1384)">
<path d="M24.0442 23.8533L42.2942 12.7636L42.2942 31.1447C42.2942 31.7401 41.9634 32.2971 41.41 32.6334L24.0443 43.1857L24.0442 23.8533Z" fill="url(#paint0_linear_200_1384)"/>
<path d="M5.79172 31.1255C5.79172 31.7208 6.1226 32.2779 6.67601 32.6141L24.0417 43.1665L24.0417 23.8341L5.79176 12.7444L5.79172 31.1255Z" fill="url(#paint1_linear_200_1384)"/>
<path d="M23.0441 2.27922C23.657 1.90693 24.4262 1.90692 25.0391 2.27922L42.2947 12.761L24.0416 23.8486L5.78845 12.761L23.0441 2.27922Z" fill="url(#paint2_linear_200_1384)"/>
<rect x="16" y="-2" width="16" height="16" rx="8" fill="#EBE9E2"/>
<path d="M24.1338 0.0791016C24.2652 0.105335 24.3872 0.170447 24.4834 0.266602C24.6113 0.394643 24.6835 0.568063 24.6836 0.749023V1.81641H25.75C26.2407 1.81641 26.7117 2.01048 27.0586 2.35742C27.4055 2.70436 27.5996 3.17537 27.5996 3.66602C27.5996 3.84725 27.5276 4.02126 27.3994 4.14941C27.2714 4.27728 27.098 4.34952 26.917 4.34961C26.7358 4.34961 26.5617 4.27746 26.4336 4.14941C26.3054 4.02126 26.2334 3.84725 26.2334 3.66602C26.2334 3.53783 26.1824 3.41486 26.0918 3.32422C26.0012 3.23358 25.8782 3.18262 25.75 3.18262H22.833C22.5502 3.1827 22.2791 3.29516 22.0791 3.49512C21.8791 3.69508 21.7667 3.96624 21.7666 4.24902C21.7666 4.53192 21.8791 4.80387 22.0791 5.00391C22.279 5.20377 22.5503 5.31632 22.833 5.31641H25.167C25.8122 5.31649 26.4314 5.57206 26.8877 6.02832C27.344 6.48458 27.5995 7.10378 27.5996 7.74902C27.5996 8.39423 27.3438 9.01342 26.8877 9.46973C26.4314 9.92599 25.8122 10.1825 25.167 10.1826H24.6836V11.249C24.6836 11.4302 24.6114 11.6043 24.4834 11.7324C24.3552 11.8606 24.1812 11.9326 24 11.9326C23.8188 11.9326 23.6448 11.8606 23.5166 11.7324C23.3886 11.6043 23.3164 11.4302 23.3164 11.249V10.1826H22.25C21.7593 10.1826 21.2883 9.98757 20.9414 9.64062C20.5947 9.29379 20.4005 8.82339 20.4004 8.33301C20.4004 8.15178 20.4724 7.97776 20.6006 7.84961C20.7286 7.72164 20.902 7.6495 21.083 7.64941C21.2642 7.64941 21.4383 7.72146 21.5664 7.84961C21.6946 7.97776 21.7666 8.15178 21.7666 8.33301C21.7667 8.46108 21.8176 8.58424 21.9082 8.6748C21.9988 8.76535 22.1219 8.81641 22.25 8.81641H25.167C25.4497 8.81632 25.721 8.70377 25.9209 8.50391C26.1209 8.30387 26.2334 8.03192 26.2334 7.74902C26.2333 7.46624 26.1209 7.19508 25.9209 6.99512C25.7209 6.79516 25.4498 6.6827 25.167 6.68262H22.833C22.1878 6.68253 21.5686 6.42599 21.1123 5.96973C20.6562 5.51342 20.4004 4.89423 20.4004 4.24902C20.4005 3.60378 20.656 2.98458 21.1123 2.52832C21.5686 2.07206 22.1878 1.81649 22.833 1.81641H23.3164V0.749023C23.3165 0.568063 23.3887 0.394643 23.5166 0.266602C23.6448 0.138452 23.8188 0.0664063 24 0.0664062L24.1338 0.0791016Z" fill="#D5AF48" stroke="#D5AF48" stroke-width="0.2"/>
<rect x="-1" y="24" width="16" height="16" rx="8" fill="#EBE9E2"/>
<path d="M7.13379 26.0791C7.2652 26.1053 7.38724 26.1704 7.4834 26.2666C7.61127 26.3946 7.68351 26.5681 7.68359 26.749V27.8164H8.75C9.24065 27.8164 9.71165 28.0105 10.0586 28.3574C10.4055 28.7044 10.5996 29.1754 10.5996 29.666C10.5996 29.8472 10.5276 30.0213 10.3994 30.1494C10.2714 30.2773 10.098 30.3495 9.91699 30.3496C9.73584 30.3496 9.56173 30.2775 9.43359 30.1494C9.30544 30.0213 9.2334 29.8472 9.2334 29.666C9.2334 29.5378 9.18244 29.4149 9.0918 29.3242C9.00115 29.2336 8.87819 29.1826 8.75 29.1826H5.83301C5.55023 29.1827 5.27906 29.2952 5.0791 29.4951C4.87914 29.6951 4.76669 29.9662 4.7666 30.249C4.7666 30.5319 4.87906 30.8039 5.0791 31.0039C5.27905 31.2038 5.5503 31.3163 5.83301 31.3164H8.16699C8.81223 31.3165 9.43143 31.5721 9.8877 32.0283C10.344 32.4846 10.5995 33.1038 10.5996 33.749C10.5996 34.3942 10.3438 35.0134 9.8877 35.4697C9.43143 35.926 8.81223 36.1825 8.16699 36.1826H7.68359V37.249C7.68359 37.4302 7.61145 37.6043 7.4834 37.7324C7.35525 37.8606 7.18123 37.9326 7 37.9326C6.81877 37.9326 6.64475 37.8606 6.5166 37.7324C6.38855 37.6043 6.31641 37.4302 6.31641 37.249V36.1826H5.25C4.75935 36.1826 4.28835 35.9876 3.94141 35.6406C3.59474 35.2938 3.40048 34.8234 3.40039 34.333C3.40039 34.1518 3.47244 33.9778 3.60059 33.8496C3.72864 33.7216 3.90197 33.6495 4.08301 33.6494C4.26424 33.6494 4.43826 33.7215 4.56641 33.8496C4.69456 33.9778 4.7666 34.1518 4.7666 34.333C4.76669 34.4611 4.81764 34.5842 4.9082 34.6748C4.99883 34.7653 5.12189 34.8164 5.25 34.8164H8.16699C8.4497 34.8163 8.72095 34.7038 8.9209 34.5039C9.12094 34.3039 9.2334 34.0319 9.2334 33.749C9.23331 33.4662 9.12086 33.1951 8.9209 32.9951C8.72094 32.7952 8.44977 32.6827 8.16699 32.6826H5.83301C5.18777 32.6825 4.56857 32.426 4.1123 31.9697C3.65617 31.5134 3.40039 30.8942 3.40039 30.249C3.40048 29.6038 3.65604 28.9846 4.1123 28.5283C4.56857 28.0721 5.18777 27.8165 5.83301 27.8164H6.31641V26.749C6.31649 26.5681 6.38873 26.3946 6.5166 26.2666C6.64475 26.1385 6.81877 26.0664 7 26.0664L7.13379 26.0791Z" fill="#D5AF48" stroke="#D5AF48" stroke-width="0.2"/>
<rect x="33" y="24" width="16" height="16" rx="8" fill="#EBE9E2"/>
<path d="M41.1338 26.0791C41.2652 26.1053 41.3872 26.1704 41.4834 26.2666C41.6113 26.3946 41.6835 26.5681 41.6836 26.749V27.8164H42.75C43.2407 27.8164 43.7117 28.0105 44.0586 28.3574C44.4055 28.7044 44.5996 29.1754 44.5996 29.666C44.5996 29.8472 44.5276 30.0213 44.3994 30.1494C44.2714 30.2773 44.098 30.3495 43.917 30.3496C43.7358 30.3496 43.5617 30.2775 43.4336 30.1494C43.3054 30.0213 43.2334 29.8472 43.2334 29.666C43.2334 29.5378 43.1824 29.4149 43.0918 29.3242C43.0012 29.2336 42.8782 29.1826 42.75 29.1826H39.833C39.5502 29.1827 39.2791 29.2952 39.0791 29.4951C38.8791 29.6951 38.7667 29.9662 38.7666 30.249C38.7666 30.5319 38.8791 30.8039 39.0791 31.0039C39.279 31.2038 39.5503 31.3163 39.833 31.3164H42.167C42.8122 31.3165 43.4314 31.5721 43.8877 32.0283C44.344 32.4846 44.5995 33.1038 44.5996 33.749C44.5996 34.3942 44.3438 35.0134 43.8877 35.4697C43.4314 35.926 42.8122 36.1825 42.167 36.1826H41.6836V37.249C41.6836 37.4302 41.6114 37.6043 41.4834 37.7324C41.3552 37.8606 41.1812 37.9326 41 37.9326C40.8188 37.9326 40.6448 37.8606 40.5166 37.7324C40.3886 37.6043 40.3164 37.4302 40.3164 37.249V36.1826H39.25C38.7593 36.1826 38.2883 35.9876 37.9414 35.6406C37.5947 35.2938 37.4005 34.8234 37.4004 34.333C37.4004 34.1518 37.4724 33.9778 37.6006 33.8496C37.7286 33.7216 37.902 33.6495 38.083 33.6494C38.2642 33.6494 38.4383 33.7215 38.5664 33.8496C38.6946 33.9778 38.7666 34.1518 38.7666 34.333C38.7667 34.4611 38.8176 34.5842 38.9082 34.6748C38.9988 34.7653 39.1219 34.8164 39.25 34.8164H42.167C42.4497 34.8163 42.721 34.7038 42.9209 34.5039C43.1209 34.3039 43.2334 34.0319 43.2334 33.749C43.2333 33.4662 43.1209 33.1951 42.9209 32.9951C42.7209 32.7952 42.4498 32.6827 42.167 32.6826H39.833C39.1878 32.6825 38.5686 32.426 38.1123 31.9697C37.6562 31.5134 37.4004 30.8942 37.4004 30.249C37.4005 29.6038 37.656 28.9846 38.1123 28.5283C38.5686 28.0721 39.1878 27.8165 39.833 27.8164H40.3164V26.749C40.3165 26.5681 40.3887 26.3946 40.5166 26.2666C40.6448 26.1385 40.8188 26.0664 41 26.0664L41.1338 26.0791Z" fill="#D5AF48" stroke="#D5AF48" stroke-width="0.2"/>
</g>
<defs>
<linearGradient id="paint0_linear_200_1384" x1="32.9791" y1="17.6443" x2="39.2235" y2="36.299" gradientUnits="userSpaceOnUse">
<stop stop-color="#F8E4AF"/>
<stop offset="0.754808" stop-color="#D8B65A"/>
</linearGradient>
<linearGradient id="paint1_linear_200_1384" x1="12.1045" y1="15.3302" x2="12.6822" y2="40.5895" gradientUnits="userSpaceOnUse">
<stop stop-color="#F8E4AF"/>
<stop offset="0.754808" stop-color="#D8B65A"/>
</linearGradient>
<linearGradient id="paint2_linear_200_1384" x1="14.1545" y1="22.2555" x2="22.6159" y2="-0.476279" gradientUnits="userSpaceOnUse">
<stop stop-color="#F8E4AF"/>
<stop offset="0.754808" stop-color="#D8B65A"/>
</linearGradient>
<clipPath id="clip0_200_1384">
<rect width="48" height="48" fill="white"/>
</clipPath>
</defs>
</svg>
